<?xml version="1.0" standalone="no"?>
<!DOCTYPE svg PUBLIC "-//W3C//DTD SVG 20010904//EN"
 "http://www.w3.org/TR/2001/REC-SVG-20010904/DTD/svg10.dtd">
<svg version="1.0" xmlns="http://www.w3.org/2000/svg"
 width="192.000000pt" height="192.000000pt" viewBox="0 0 192.000000 192.000000"
 preserveAspectRatio="xMidYMid meet">
<metadata>
Created by potrace 1.14, written by Peter Selinger 2001-2017
</metadata>
<g transform="translate(0.000000,192.000000) scale(0.100000,-0.100000)"
fill="#000000" stroke="none">
<path d="M550 1314 c-60 -18 -110 -61 -145 -125 -24 -45 -29 -65 -29 -124 1
-164 105 -268 269 -267 118 1 200 54 247 160 25 56 22 168 -7 226 -23 48 -79
103 -125 123 -47 20 -155 24 -210 7z m178 -121 c43 -32 59 -68 59 -128 0 -91
-59 -165 -132 -165 -107 0 -163 66 -157 184 6 119 134 180 230 109z"/>
<path d="M1130 1315 c-100 -32 -170 -128 -175 -240 -9 -191 129 -304 330 -272
82 13 139 59 175 140 15 33 27 47 40 47 11 0 20 3 21 8 5 44 3 64 -6 71 -5 4
-64 7 -130 7 l-120 -1 -2 -42 c-1 -45 0 -46 55 -43 48 2 40 -33 -18 -73 -35
-24 -114 -22 -155 3 -101 62 -86 260 22 301 59 22 121 7 158 -38 17 -21 30
-25 73 -26 61 0 67 3 58 37 -10 39 -62 92 -109 111 -58 23 -161 28 -217 10z"/>
<path d="M62 1312 c-9 -3 -12 -74 -12 -253 l0 -249 150 0 c113 0 150 3 151 13
4 64 3 80 -6 85 -5 3 -48 6 -95 7 l-85 0 0 200 0 199 -46 1 c-25 1 -51 -1 -57
-3z"/>
<path d="M1693 1045 c-32 -14 -47 -30 -18 -19 20 8 20 -25 1 -71 -9 -21 -22
-35 -37 -37 -12 -2 -24 -8 -26 -15 -3 -7 4 -9 18 -6 26 7 23 1 -25 -62 -17
-22 -22 -33 -11 -25 11 9 16 10 11 3 -13 -23 -16 -56 -5 -70 19 -22 51 -15 85
18 26 25 32 28 28 12 -8 -29 20 -53 54 -47 40 7 122 64 122 85 0 4 -13 -5 -29
-21 -30 -31 -71 -46 -96 -36 -32 12 -8 99 37 130 27 19 64 21 71 4 3 -7 6 -3
6 9 1 12 -3 24 -7 27 -18 11 -90 -37 -126 -84 -49 -64 -93 -101 -111 -94 -23
9 -18 42 15 112 24 51 33 62 54 62 13 0 27 -5 29 -10 3 -6 4 -5 3 2 -1 7 -12
14 -24 16 -27 4 -27 2 3 62 37 74 35 80 -22 55z"/>
<path d="M1492 910 c-12 -11 -29 -34 -37 -50 -9 -17 -19 -30 -23 -30 -4 0 -9
-11 -10 -25 -1 -13 -2 -28 -3 -32 -5 -31 4 -43 36 -49 25 -4 43 -1 63 11 35
23 66 55 52 55 -6 0 -13 -6 -16 -14 -7 -19 -69 -47 -87 -40 -46 17 -21 83 37
99 25 7 35 14 27 19 -6 4 -19 2 -27 -5 -25 -20 -27 -2 -4 30 24 35 58 44 40
12 -13 -25 -13 -31 0 -31 18 0 33 52 18 62 -21 13 -43 9 -66 -12z"/>
</g>
</svg>
