<?xml version="1.0" encoding="UTF-8"?>
<!DOCTYPE svg PUBLIC "-//W3C//DTD SVG 1.1//EN" "http://www.w3.org/Graphics/SVG/1.1/DTD/svg11.dtd">
<svg xmlns="http://www.w3.org/2000/svg" version="1.1" width="706px" height="353px" style="shape-rendering:geometricPrecision; text-rendering:geometricPrecision; image-rendering:optimizeQuality; fill-rule:evenodd; clip-rule:evenodd" xmlns:xlink="http://www.w3.org/1999/xlink">
<g><path style="opacity:0.818" fill="#5793dc" d="M 111.5,134.5 C 128.995,133.338 146.662,133.171 164.5,134C 167.445,134.139 169.779,135.306 171.5,137.5C 170.167,137.5 168.833,137.5 167.5,137.5C 165.245,135.62 162.578,134.62 159.5,134.5C 143.5,134.5 127.5,134.5 111.5,134.5 Z"/></g>
<g><path style="opacity:1" fill="#387bd8" d="M 111.5,134.5 C 127.5,134.5 143.5,134.5 159.5,134.5C 158.828,135.267 157.995,135.934 157,136.5C 145.691,135.506 133.525,135.172 120.5,135.5C 117.486,135.258 114.986,136.258 113,138.5C 111.684,135.972 110.517,135.972 109.5,138.5C 110.167,139.167 110.833,139.833 111.5,140.5C 109.209,140.877 107.042,140.877 105,140.5C 104.616,142.197 104.782,143.863 105.5,145.5C 103.883,144.962 102.216,144.629 100.5,144.5C 99.2055,148.015 98.3722,151.682 98,155.5C 97.1671,170.844 97.3338,186.178 98.5,201.5C 101.259,205.595 103.592,209.929 105.5,214.5C 100.409,211.682 97.2425,207.348 96,201.5C 95.3333,184.5 95.3333,167.5 96,150.5C 96.21,148.942 96.71,147.609 97.5,146.5C 98.9063,146.027 99.573,145.027 99.5,143.5C 100.5,140.5 102.5,138.5 105.5,137.5C 107.544,136.492 109.544,135.492 111.5,134.5 Z"/></g>
<g><path style="opacity:0.8" fill="#84afe5" d="M 111.5,134.5 C 109.544,135.492 107.544,136.492 105.5,137.5C 106.687,135.025 108.687,134.025 111.5,134.5 Z"/></g>
<g><path style="opacity:1" fill="#0c6fdf" d="M 159.5,134.5 C 162.578,134.62 165.245,135.62 167.5,137.5C 164.753,137.187 162.086,137.52 159.5,138.5C 163.239,139.218 166.905,139.552 170.5,139.5C 168.947,143.339 166.781,144.006 164,141.5C 160.886,143.973 159.386,147.306 159.5,151.5C 157.8,151.374 156.3,150.707 155,149.5C 154.5,149.833 154,150.167 153.5,150.5C 154.243,151.182 154.909,151.849 155.5,152.5C 154.833,152.5 154.167,152.5 153.5,152.5C 152.508,152.672 151.842,152.338 151.5,151.5C 151.5,150.5 151.5,149.5 151.5,148.5C 144.416,147.874 137.75,148.541 131.5,150.5C 128.436,150.928 125.436,151.594 122.5,152.5C 122.5,153.5 122.5,154.5 122.5,155.5C 121.167,155.5 119.833,155.5 118.5,155.5C 118.489,153.983 117.823,152.816 116.5,152C 117.665,150.916 118.998,150.083 120.5,149.5C 121.476,147.877 120.976,146.543 119,145.5C 117.556,147.155 115.722,147.822 113.5,147.5C 113.855,149.89 114.522,152.223 115.5,154.5C 115.167,155.5 114.833,156.5 114.5,157.5C 113.571,156.311 113.238,154.978 113.5,153.5C 111.027,153.736 109.36,155.069 108.5,157.5C 107.583,156.873 106.583,156.539 105.5,156.5C 104.913,152.737 104.913,149.071 105.5,145.5C 104.782,143.863 104.616,142.197 105,140.5C 107.042,140.877 109.209,140.877 111.5,140.5C 110.833,139.833 110.167,139.167 109.5,138.5C 110.517,135.972 111.684,135.972 113,138.5C 114.986,136.258 117.486,135.258 120.5,135.5C 133.525,135.172 145.691,135.506 157,136.5C 157.995,135.934 158.828,135.267 159.5,134.5 Z"/></g>
<g><path style="opacity:1" fill="#6193cc" d="M 172.5,137.5 C 174.914,138.911 176.581,140.911 177.5,143.5C 175.976,142.826 174.642,141.826 173.5,140.5C 172.614,139.675 172.281,138.675 172.5,137.5 Z"/></g>
<g><path style="opacity:1" fill="#1670dc" d="M 167.5,137.5 C 168.833,137.5 170.167,137.5 171.5,137.5C 171.833,137.5 172.167,137.5 172.5,137.5C 172.281,138.675 172.614,139.675 173.5,140.5C 174.642,141.826 175.976,142.826 177.5,143.5C 178.674,144.514 179.34,145.847 179.5,147.5C 179.667,165.836 179.5,184.17 179,202.5C 177.731,203.905 177.231,205.571 177.5,207.5C 176.5,207.5 175.5,207.5 174.5,207.5C 174.5,208.5 174.5,209.5 174.5,210.5C 173.5,210.5 172.5,210.5 171.5,210.5C 171.5,211.833 171.5,213.167 171.5,214.5C 170.025,216.41 168.025,217.576 165.5,218C 146.79,218.808 128.123,218.641 109.5,217.5C 109.027,216.094 108.027,215.427 106.5,215.5C 105.833,215.5 105.5,215.167 105.5,214.5C 125.424,216.515 145.424,217.015 165.5,216C 164.376,215.751 163.376,215.251 162.5,214.5C 165.167,213.833 167.833,213.167 170.5,212.5C 166.059,212.075 161.892,211.075 158,209.5C 149.216,210.598 140.382,210.598 131.5,209.5C 130.235,208.521 128.901,207.521 127.5,206.5C 133.377,204.843 139.377,204.177 145.5,204.5C 145.5,203.5 145.5,202.5 145.5,201.5C 145.833,201.5 146.167,201.5 146.5,201.5C 151.972,202.033 155.306,199.7 156.5,194.5C 157.906,194.027 158.573,193.027 158.5,191.5C 159.496,191.586 160.329,191.252 161,190.5C 161.696,187.522 162.196,184.522 162.5,181.5C 161.127,181.343 159.793,181.51 158.5,182C 157.624,183.585 156.291,184.585 154.5,185C 155.337,186.011 155.67,187.178 155.5,188.5C 153.801,188.34 152.134,188.506 150.5,189C 149.748,189.671 149.414,190.504 149.5,191.5C 147.126,192.686 144.792,192.686 142.5,191.5C 140.485,190.076 138.152,189.41 135.5,189.5C 133.973,189.573 132.973,188.906 132.5,187.5C 136.529,188.556 140.529,188.556 144.5,187.5C 145.833,186.5 145.833,185.5 144.5,184.5C 142.38,185.872 141.38,185.205 141.5,182.5C 143.262,182.643 144.929,182.309 146.5,181.5C 148.111,182.32 148.778,183.654 148.5,185.5C 149.5,185.5 150.5,185.5 151.5,185.5C 151.5,184.167 151.5,182.833 151.5,181.5C 154.95,182.244 156.616,180.91 156.5,177.5C 156.5,176.833 156.5,176.167 156.5,175.5C 156.5,175.167 156.5,174.833 156.5,174.5C 158.217,171.155 158.884,167.489 158.5,163.5C 158.357,161.738 158.691,160.071 159.5,158.5C 158.476,157.148 157.476,155.815 156.5,154.5C 156.167,153.833 155.833,153.167 155.5,152.5C 154.909,151.849 154.243,151.182 153.5,150.5C 154,150.167 154.5,149.833 155,149.5C 156.3,150.707 157.8,151.374 159.5,151.5C 159.386,147.306 160.886,143.973 164,141.5C 166.781,144.006 168.947,143.339 170.5,139.5C 166.905,139.552 163.239,139.218 159.5,138.5C 162.086,137.52 164.753,137.187 167.5,137.5 Z"/></g>
<g><path style="opacity:0.627" fill="#87baed" d="M 99.5,143.5 C 99.573,145.027 98.9063,146.027 97.5,146.5C 97.427,144.973 98.0937,143.973 99.5,143.5 Z"/></g>
<g><path style="opacity:1" fill="#578ad6" d="M 151.5,151.5 C 145.536,150.693 139.536,150.36 133.5,150.5C 132.833,150.5 132.167,150.5 131.5,150.5C 137.75,148.541 144.416,147.874 151.5,148.5C 151.5,149.5 151.5,150.5 151.5,151.5 Z"/></g>
<g><path style="opacity:0.471" fill="#97c7ed" d="M 153.5,152.5 C 154.167,152.5 154.833,152.5 155.5,152.5C 155.833,153.167 156.167,153.833 156.5,154.5C 154.973,154.573 153.973,153.906 153.5,152.5 Z"/></g>
<g><path style="opacity:1" fill="#5b91d7" d="M 131.5,150.5 C 132.167,150.5 132.833,150.5 133.5,150.5C 130.292,151.689 127.292,153.355 124.5,155.5C 123.833,155.5 123.5,155.833 123.5,156.5C 122.833,156.5 122.5,156.833 122.5,157.5C 121.833,157.5 121.5,157.833 121.5,158.5C 119.357,160.131 117.69,162.131 116.5,164.5C 117.128,161.124 117.794,158.124 118.5,155.5C 119.833,155.5 121.167,155.5 122.5,155.5C 122.5,154.5 122.5,153.5 122.5,152.5C 125.436,151.594 128.436,150.928 131.5,150.5 Z"/></g>
<g><path style="opacity:1" fill="#6c9bdb" d="M 139.5,157.5 C 134.138,156.382 128.804,156.382 123.5,157.5C 123.5,157.167 123.5,156.833 123.5,156.5C 124.167,156.5 124.5,156.167 124.5,155.5C 129.887,153.9 134.887,154.567 139.5,157.5 Z"/></g>
<g><path style="opacity:1" fill="#4a83d2" d="M 232.5,156.5 C 232.5,157.167 232.5,157.833 232.5,158.5C 224.493,158.334 216.493,158.5 208.5,159C 206.133,160.845 203.467,162.011 200.5,162.5C 202.8,159.676 205.8,157.843 209.5,157C 217.158,155.371 224.825,155.205 232.5,156.5 Z"/></g>
<g><path style="opacity:1" fill="#6295da" d="M 232.5,156.5 C 235.542,156.733 238.208,157.733 240.5,159.5C 237.763,159.599 235.096,159.265 232.5,158.5C 232.5,157.833 232.5,157.167 232.5,156.5 Z"/></g>
<g><path style="opacity:0.988" fill="#7fb4e2" d="M 122.5,157.5 C 122.833,157.5 123.167,157.5 123.5,157.5C 123.573,159.027 122.906,160.027 121.5,160.5C 121.5,159.833 121.5,159.167 121.5,158.5C 122.167,158.5 122.5,158.167 122.5,157.5 Z"/></g>
<g><path style="opacity:1" fill="#096fdf" d="M 105.5,145.5 C 104.913,149.071 104.913,152.737 105.5,156.5C 106.09,157.766 106.59,159.099 107,160.5C 106.769,173.023 107.935,185.357 110.5,197.5C 109.914,201.195 109.247,204.862 108.5,208.5C 115.389,209.183 122.222,209.85 129,210.5C 129.951,210.116 130.784,209.783 131.5,209.5C 140.382,210.598 149.216,210.598 158,209.5C 161.892,211.075 166.059,212.075 170.5,212.5C 167.833,213.167 165.167,213.833 162.5,214.5C 163.376,215.251 164.376,215.751 165.5,216C 145.424,217.015 125.424,216.515 105.5,214.5C 103.592,209.929 101.259,205.595 98.5,201.5C 97.3338,186.178 97.1671,170.844 98,155.5C 98.3722,151.682 99.2055,148.015 100.5,144.5C 102.216,144.629 103.883,144.962 105.5,145.5 Z"/></g>
<g><path style="opacity:1" fill="#1570de" d="M 139.5,157.5 C 139.5,158.5 139.5,159.5 139.5,160.5C 140.93,160.421 142.264,160.754 143.5,161.5C 145.578,163.92 147.912,165.92 150.5,167.5C 150.863,170.563 151.53,173.563 152.5,176.5C 152.272,178.207 151.938,179.874 151.5,181.5C 151.5,182.833 151.5,184.167 151.5,185.5C 150.5,185.5 149.5,185.5 148.5,185.5C 148.778,183.654 148.111,182.32 146.5,181.5C 144.929,182.309 143.262,182.643 141.5,182.5C 141.38,185.205 142.38,185.872 144.5,184.5C 145.833,185.5 145.833,186.5 144.5,187.5C 140.529,188.556 136.529,188.556 132.5,187.5C 131.699,184.428 129.699,182.762 126.5,182.5C 126.437,178.445 124.77,175.445 121.5,173.5C 118.833,169.167 118.833,164.833 121.5,160.5C 122.906,160.027 123.573,159.027 123.5,157.5C 128.804,156.382 134.138,156.382 139.5,157.5 Z"/></g>
<g><path style="opacity:1" fill="#6495d5" d="M 139.5,157.5 C 144.441,159.442 148.108,162.775 150.5,167.5C 147.912,165.92 145.578,163.92 143.5,161.5C 142.264,160.754 140.93,160.421 139.5,160.5C 139.5,159.5 139.5,158.5 139.5,157.5 Z"/></g>
<g><path style="opacity:0.404" fill="#a4ccf5" d="M 491.5,149.5 C 495.5,149.5 499.5,149.5 503.5,149.5C 503.5,153.167 503.5,156.833 503.5,160.5C 499.5,160.5 495.5,160.5 491.5,160.5C 491.5,156.833 491.5,153.167 491.5,149.5 Z"/></g>
<g><path style="opacity:1" fill="#1f6bc2" d="M 492.5,150.5 C 495.833,150.5 499.167,150.5 502.5,150.5C 502.5,153.5 502.5,156.5 502.5,159.5C 499.167,159.5 495.833,159.5 492.5,159.5C 492.5,156.5 492.5,153.5 492.5,150.5 Z"/></g>
<g><path style="opacity:1" fill="#0b6fde" d="M 494.5,152.5 C 496.5,152.5 498.5,152.5 500.5,152.5C 500.833,154.5 501.167,156.5 501.5,158.5C 498.813,158.664 496.146,158.497 493.5,158C 494.406,156.301 494.739,154.467 494.5,152.5 Z"/></g>
<g><path style="opacity:1" fill="#5789dc" d="M 247.5,175.5 C 248.5,175.5 249.5,175.5 250.5,175.5C 246.649,176.809 242.649,176.809 238.5,175.5C 237.294,170.795 234.294,167.962 229.5,167C 224.965,165.613 220.299,165.446 215.5,166.5C 220.407,164.711 225.74,163.878 231.5,164C 233.504,160.878 235.504,161.045 237.5,164.5C 235.96,165.532 235.46,166.865 236,168.5C 237.667,169.5 239.333,170.5 241,171.5C 241.483,172.448 241.649,173.448 241.5,174.5C 243.565,174.517 245.565,174.85 247.5,175.5 Z"/></g>
<g><path style="opacity:1" fill="#0b6fdf" d="M 232.5,158.5 C 235.096,159.265 237.763,159.599 240.5,159.5C 240.833,159.5 241.167,159.5 241.5,159.5C 241.66,161.153 242.326,162.486 243.5,163.5C 240.58,167.796 241.246,168.796 245.5,166.5C 246.645,167.776 246.645,169.109 245.5,170.5C 246.274,171.711 247.107,171.711 248,170.5C 248.64,172.265 248.473,173.932 247.5,175.5C 245.565,174.85 243.565,174.517 241.5,174.5C 241.649,173.448 241.483,172.448 241,171.5C 239.333,170.5 237.667,169.5 236,168.5C 235.46,166.865 235.96,165.532 237.5,164.5C 235.504,161.045 233.504,160.878 231.5,164C 225.74,163.878 220.407,164.711 215.5,166.5C 213.219,166.077 211.552,166.744 210.5,168.5C 208.901,168.232 207.568,168.566 206.5,169.5C 205.549,172.215 204.883,175.049 204.5,178C 204.906,181.923 205.406,185.756 206,189.5C 205.417,191.002 204.584,192.335 203.5,193.5C 201.929,192.691 200.262,192.357 198.5,192.5C 197.126,188.316 196.46,183.982 196.5,179.5C 197.403,174.213 198.403,168.88 199.5,163.5C 199.5,162.833 199.833,162.5 200.5,162.5C 203.467,162.011 206.133,160.845 208.5,159C 216.493,158.5 224.493,158.334 232.5,158.5 Z"/></g>
<g><path style="opacity:1" fill="#6293d2" d="M 241.5,159.5 C 244.189,160.189 245.856,161.856 246.5,164.5C 245.391,164.443 244.391,164.11 243.5,163.5C 242.326,162.486 241.66,161.153 241.5,159.5 Z"/></g>
<g><path style="opacity:1" fill="#5689d2" d="M 297.5,167.5 C 284.996,164.247 272.33,163.58 259.5,165.5C 270.996,161.808 282.663,161.641 294.5,165C 295.942,165.377 296.942,166.21 297.5,167.5 Z"/></g>
<g><path style="opacity:1" fill="#558ad5" d="M 359.5,163.5 C 359.5,163.833 359.5,164.167 359.5,164.5C 353.132,164.17 346.798,164.504 340.5,165.5C 337.609,166.678 334.609,167.345 331.5,167.5C 334.534,164.759 338.201,163.259 342.5,163C 348.218,162.26 353.885,162.427 359.5,163.5 Z"/></g>
<g><path style="opacity:0.931" fill="#6c9bd9" d="M 521.5,169.5 C 519.273,168.599 518.273,166.933 518.5,164.5C 515.167,164.5 511.833,164.5 508.5,164.5C 508.5,166.167 508.5,167.833 508.5,169.5C 507.696,167.811 506.696,166.145 505.5,164.5C 510.12,163.507 514.786,163.173 519.5,163.5C 519.704,165.685 520.37,167.685 521.5,169.5 Z"/></g>
<g><path style="opacity:1" fill="#0e6fdd" d="M 359.5,164.5 C 359.791,165.649 360.624,166.316 362,166.5C 364.137,167.077 366.304,167.41 368.5,167.5C 368.183,170.546 369.516,172.213 372.5,172.5C 373.008,176.197 373.674,179.864 374.5,183.5C 368.833,182.167 363.167,182.167 357.5,183.5C 357.351,182.448 357.517,181.448 358,180.5C 359.622,179.901 361.122,179.234 362.5,178.5C 363.885,177.053 363.552,176.053 361.5,175.5C 360.128,174.488 358.795,173.488 357.5,172.5C 357.082,171.778 356.416,171.278 355.5,171C 348.403,170.251 341.403,170.751 334.5,172.5C 334.433,173.959 334.766,175.292 335.5,176.5C 335.328,177.492 335.662,178.158 336.5,178.5C 338.381,180.828 340.714,181.161 343.5,179.5C 346.806,180.163 350.139,180.663 353.5,181C 352.833,181.667 352.167,182.333 351.5,183C 345.984,183.173 340.651,183.673 335.5,184.5C 334.212,186.035 334.212,187.701 335.5,189.5C 336.724,190.766 338.057,191.933 339.5,193C 336.46,193.596 333.794,194.763 331.5,196.5C 330.833,196.5 330.167,196.5 329.5,196.5C 328.5,196.167 327.833,195.5 327.5,194.5C 325.284,189.025 324.451,183.359 325,177.5C 326.121,174.164 328.287,172.164 331.5,171.5C 331.5,170.167 331.5,168.833 331.5,167.5C 334.609,167.345 337.609,166.678 340.5,165.5C 346.798,164.504 353.132,164.17 359.5,164.5 Z M 357.5,172.5 C 358.795,173.488 360.128,174.488 361.5,175.5C 361.611,176.117 361.944,176.617 362.5,177C 353.657,177.824 344.99,177.657 336.5,176.5C 342.691,171.676 349.691,170.343 357.5,172.5 Z"/></g>
<g><path style="opacity:1" fill="#6394d3" d="M 359.5,163.5 C 362.912,164.075 365.912,165.408 368.5,167.5C 366.304,167.41 364.137,167.077 362,166.5C 360.624,166.316 359.791,165.649 359.5,164.5C 359.5,164.167 359.5,163.833 359.5,163.5 Z"/></g>
<g><path style="opacity:0.533" fill="#98cbfc" d="M 487.5,150.5 C 487.167,150.5 486.833,150.5 486.5,150.5C 483.167,150.5 479.833,150.5 476.5,150.5C 476.829,156.537 476.496,162.537 475.5,168.5C 474.893,168.376 474.56,168.043 474.5,167.5C 475.49,161.69 475.823,155.69 475.5,149.5C 479.702,149.183 483.702,149.517 487.5,150.5 Z"/></g>
<g><path style="opacity:1" fill="#6594d9" d="M 591.5,163.5 C 595.97,163.783 599.97,165.283 603.5,168C 604.823,168.816 605.489,169.983 605.5,171.5C 602.222,168.365 598.222,166.532 593.5,166C 592.619,165.292 591.953,164.458 591.5,163.5 Z"/></g>
<g><path style="opacity:1" fill="#75a5e2" d="M 215.5,166.5 C 214.22,167.931 212.553,168.598 210.5,168.5C 211.552,166.744 213.219,166.077 215.5,166.5 Z"/></g>
<g><path style="opacity:1" fill="#3379d6" d="M 243.5,163.5 C 244.391,164.11 245.391,164.443 246.5,164.5C 249.389,167.491 250.722,171.158 250.5,175.5C 249.5,175.5 248.5,175.5 247.5,175.5C 248.473,173.932 248.64,172.265 248,170.5C 247.107,171.711 246.274,171.711 245.5,170.5C 246.645,169.109 246.645,167.776 245.5,166.5C 241.246,168.796 240.58,167.796 243.5,163.5 Z"/></g>
<g><path style="opacity:0.792" fill="#7ba6d8" d="M 389.5,163.5 C 390.302,164.952 390.802,166.618 391,168.5C 391.671,167.748 392.504,167.414 393.5,167.5C 392.713,169.104 391.38,169.771 389.5,169.5C 389.5,167.5 389.5,165.5 389.5,163.5 Z"/></g>
<g><path style="opacity:0.737" fill="#a3c8ee" d="M 567.5,165.5 C 567.027,166.906 566.027,167.573 564.5,167.5C 564.973,166.094 565.973,165.427 567.5,165.5 Z"/></g>
<g><path style="opacity:1" fill="#397ad6" d="M 428.5,169.5 C 428.5,170.167 428.5,170.833 428.5,171.5C 427.292,170.766 425.959,170.433 424.5,170.5C 424.5,169.167 424.5,167.833 424.5,166.5C 421.729,166.421 419.063,166.921 416.5,168C 416.587,169.75 417.254,171.583 418.5,173.5C 413.562,172.608 408.562,172.274 403.5,172.5C 405.279,171.33 406.279,169.664 406.5,167.5C 410.828,167.963 414.828,167.13 418.5,165C 416.333,164.833 414.167,164.667 412,164.5C 406.206,165.558 400.373,166.558 394.5,167.5C 395.058,166.21 396.058,165.377 397.5,165C 406.515,161.72 415.515,161.72 424.5,165C 426.192,166.307 427.525,167.807 428.5,169.5 Z"/></g>
<g><path style="opacity:1" fill="#5287d5" d="M 545.5,191.5 C 546.646,185.227 548.479,179.227 551,173.5C 551.414,173.957 551.914,174.291 552.5,174.5C 554.146,172.608 554.48,170.608 553.5,168.5C 554.325,167.614 555.325,167.281 556.5,167.5C 556.5,166.5 556.5,165.5 556.5,164.5C 554.143,164.337 551.81,164.503 549.5,165C 548.529,166.481 547.196,167.315 545.5,167.5C 545.539,166.417 545.873,165.417 546.5,164.5C 550.833,163.167 555.167,163.167 559.5,164.5C 555.059,173.718 550.392,182.718 545.5,191.5 Z"/></g>
<g><path style="opacity:1" fill="#6d9edb" d="M 206.5,169.5 C 207.568,168.566 208.901,168.232 210.5,168.5C 209.737,170.368 208.737,172.035 207.5,173.5C 207.768,171.901 207.434,170.568 206.5,169.5 Z"/></g>
<g><path style="opacity:1" fill="#5086d0" d="M 451.5,163.5 C 446.707,165.738 442.374,168.738 438.5,172.5C 437.989,174.884 436.989,176.884 435.5,178.5C 436.466,168.993 441.8,163.993 451.5,163.5 Z"/></g>
<g><path style="opacity:1" fill="#70a4df" d="M 158.5,163.5 C 158.884,167.489 158.217,171.155 156.5,174.5C 156.808,170.64 157.475,166.974 158.5,163.5 Z"/></g>
<g><path style="opacity:1" fill="#0f70dd" d="M 297.5,167.5 C 297.833,167.5 298.167,167.5 298.5,167.5C 298.819,171.136 299.985,174.469 302,177.5C 302.5,184.826 302.666,192.159 302.5,199.5C 299.833,199.5 297.167,199.5 294.5,199.5C 294.5,198.167 294.5,196.833 294.5,195.5C 292.801,195.66 291.134,195.494 289.5,195C 288.748,194.329 288.414,193.496 288.5,192.5C 290.19,192.144 291.19,191.144 291.5,189.5C 291.833,189.5 292.167,189.5 292.5,189.5C 293.851,186.172 292.517,184.839 288.5,185.5C 285.794,185.425 283.127,185.092 280.5,184.5C 276.689,183.355 272.689,183.188 268.5,184C 267.944,184.383 267.611,184.883 267.5,185.5C 265.712,185.215 264.045,185.548 262.5,186.5C 263.028,188.336 263.694,190.003 264.5,191.5C 264.67,192.822 264.337,193.989 263.5,195C 264,195.167 264.5,195.333 265,195.5C 271.462,194.391 277.962,194.225 284.5,195C 282.715,196.163 280.715,196.83 278.5,197C 277.366,198.016 277.699,198.683 279.5,199C 272.95,200.42 266.284,200.92 259.5,200.5C 258.73,198.065 257.063,196.731 254.5,196.5C 254.5,196.167 254.5,195.833 254.5,195.5C 254.335,192.482 254.502,189.482 255,186.5C 256.431,184.636 257.597,182.636 258.5,180.5C 259.5,180.5 260.5,180.5 261.5,180.5C 261.5,181.5 261.5,182.5 261.5,183.5C 262.5,183.5 263.5,183.5 264.5,183.5C 264.297,181.61 264.963,180.11 266.5,179C 275.246,178.423 283.913,178.756 292.5,180C 293.059,179.275 293.392,178.442 293.5,177.5C 292.453,175.944 291.786,174.277 291.5,172.5C 281.825,171.293 272.158,171.293 262.5,172.5C 258.839,171.197 257.839,168.863 259.5,165.5C 272.33,163.58 284.996,164.247 297.5,167.5 Z M 280.5,184.5 C 283.127,185.092 285.794,185.425 288.5,185.5C 289.263,186.268 290.263,186.768 291.5,187C 292.252,187.671 292.586,188.504 292.5,189.5C 292.167,189.5 291.833,189.5 291.5,189.5C 286.394,190.848 281.394,192.181 276.5,193.5C 272.3,193.81 268.3,193.143 264.5,191.5C 264.455,188.923 265.455,186.923 267.5,185.5C 271.798,184.8 276.131,184.467 280.5,184.5 Z"/></g>
<g><path style="opacity:0.992" fill="#5087d3" d="M 357.5,172.5 C 349.691,170.343 342.691,171.676 336.5,176.5C 336.167,176.5 335.833,176.5 335.5,176.5C 334.766,175.292 334.433,173.959 334.5,172.5C 341.403,170.751 348.403,170.251 355.5,171C 356.416,171.278 357.082,171.778 357.5,172.5 Z"/></g>
<g><path style="opacity:1" fill="#5b8fd2" d="M 368.5,167.5 C 370.207,168.873 371.54,170.539 372.5,172.5C 369.516,172.213 368.183,170.546 368.5,167.5 Z"/></g>
<g><path style="opacity:0.443" fill="#a9cbf3" d="M 428.5,169.5 C 429.906,169.973 430.573,170.973 430.5,172.5C 429.833,172.167 429.167,171.833 428.5,171.5C 428.5,170.833 428.5,170.167 428.5,169.5 Z"/></g>
<g><path style="opacity:0.906" fill="#89b5df" d="M 605.5,171.5 C 606.906,171.973 607.573,172.973 607.5,174.5C 607.167,174.5 606.833,174.5 606.5,174.5C 605.89,173.609 605.557,172.609 605.5,171.5 Z"/></g>
<g><path style="opacity:1" fill="#598ed1" d="M 121.5,173.5 C 124.77,175.445 126.437,178.445 126.5,182.5C 123.595,180.244 121.928,177.244 121.5,173.5 Z"/></g>
<g><path style="opacity:1" fill="#7fa7df" d="M 399.5,174.5 C 398.035,175.737 396.368,176.737 394.5,177.5C 394.5,176.5 394.5,175.5 394.5,174.5C 396.167,174.5 397.833,174.5 399.5,174.5 Z"/></g>
<g><path style="opacity:0.531" fill="#7eb5f3" d="M 486.5,150.5 C 486.833,150.5 487.167,150.5 487.5,150.5C 487.5,167.5 487.5,184.5 487.5,201.5C 483.5,201.5 479.5,201.5 475.5,201.5C 475.768,199.901 475.434,198.568 474.5,197.5C 474.783,196.711 475.283,196.044 476,195.5C 476.494,197.134 476.66,198.801 476.5,200.5C 479.833,200.5 483.167,200.5 486.5,200.5C 486.5,183.833 486.5,167.167 486.5,150.5 Z"/></g>
<g><path style="opacity:1" fill="#0b6fde" d="M 545.5,191.5 C 544.833,191.5 544.167,191.5 543.5,191.5C 541.692,190.082 541.025,188.082 541.5,185.5C 542.552,185.649 543.552,185.483 544.5,185C 543.883,182.723 543.216,180.556 542.5,178.5C 543.321,174.716 544.321,171.049 545.5,167.5C 547.196,167.315 548.529,166.481 549.5,165C 551.81,164.503 554.143,164.337 556.5,164.5C 556.5,165.5 556.5,166.5 556.5,167.5C 555.325,167.281 554.325,167.614 553.5,168.5C 554.48,170.608 554.146,172.608 552.5,174.5C 551.914,174.291 551.414,173.957 551,173.5C 548.479,179.227 546.646,185.227 545.5,191.5 Z"/></g>
<g><path style="opacity:0.341" fill="#aae5ff" d="M 156.5,175.5 C 156.5,176.167 156.5,176.833 156.5,177.5C 155.075,179.031 154.409,178.698 154.5,176.5C 155.167,176.167 155.833,175.833 156.5,175.5 Z"/></g>
<g><path style="opacity:0.431" fill="#88bffa" d="M 492.5,163.5 C 492.5,175.833 492.5,188.167 492.5,200.5C 495.833,200.5 499.167,200.5 502.5,200.5C 502.5,190.167 502.5,179.833 502.5,169.5C 502.5,168.167 502.5,166.833 502.5,165.5C 502.5,164.833 502.5,164.167 502.5,163.5C 503.495,175.989 503.829,188.656 503.5,201.5C 499.5,201.5 495.5,201.5 491.5,201.5C 491.171,188.656 491.505,175.989 492.5,163.5 Z"/></g>
<g><path style="opacity:1" fill="#0b6fde" d="M 502.5,165.5 C 502.5,166.833 502.5,168.167 502.5,169.5C 501.045,176.984 500.045,184.651 499.5,192.5C 500.348,194.409 500.682,196.409 500.5,198.5C 498.876,198.64 497.71,197.973 497,196.5C 496.667,196.833 496.333,197.167 496,197.5C 494.695,186.543 493.862,175.543 493.5,164.5C 496.609,164.264 499.609,164.597 502.5,165.5 Z"/></g>
<g><path style="opacity:1" fill="#5289d3" d="M 259.5,165.5 C 257.839,168.863 258.839,171.197 262.5,172.5C 272.158,171.293 281.825,171.293 291.5,172.5C 291.786,174.277 292.453,175.944 293.5,177.5C 293.392,178.442 293.059,179.275 292.5,180C 283.913,178.756 275.246,178.423 266.5,179C 264.963,180.11 264.297,181.61 264.5,183.5C 263.5,183.5 262.5,183.5 261.5,183.5C 261.5,182.5 261.5,181.5 261.5,180.5C 260.5,180.5 259.5,180.5 258.5,180.5C 258.611,179.883 258.944,179.383 259.5,179C 262.529,178.461 265.529,177.794 268.5,177C 276.575,176.483 284.575,176.816 292.5,178C 288.545,174.064 283.711,172.231 278,172.5C 272.045,172.889 266.211,173.889 260.5,175.5C 258.333,173.17 256.666,170.503 255.5,167.5C 256.577,166.295 257.91,165.628 259.5,165.5 Z"/></g>
<g><path style="opacity:0.387" fill="#95c8fc" d="M 361.5,175.5 C 363.552,176.053 363.885,177.053 362.5,178.5C 353.833,178.5 345.167,178.5 336.5,178.5C 335.662,178.158 335.328,177.492 335.5,176.5C 335.833,176.5 336.167,176.5 336.5,176.5C 344.99,177.657 353.657,177.824 362.5,177C 361.944,176.617 361.611,176.117 361.5,175.5 Z"/></g>
<g><path style="opacity:1" fill="#5b8cd8" d="M 510.5,172.5 C 512.6,174.46 514.6,176.627 516.5,179C 516.167,179.333 515.833,179.667 515.5,180C 518.767,184.301 520.767,189.134 521.5,194.5C 517.289,187.411 513.622,180.078 510.5,172.5 Z"/></g>
<g><path style="opacity:1" fill="#4d81d1" d="M 545.5,167.5 C 544.321,171.049 543.321,174.716 542.5,178.5C 540.709,181.132 538.709,183.465 536.5,185.5C 538.761,179 541.761,173 545.5,167.5 Z"/></g>
<g><path style="opacity:1" fill="#216eca" d="M 372.5,172.5 C 374.966,176.018 375.966,180.018 375.5,184.5C 362.167,184.5 348.833,184.5 335.5,184.5C 340.651,183.673 345.984,183.173 351.5,183C 352.167,182.333 352.833,181.667 353.5,181C 350.139,180.663 346.806,180.163 343.5,179.5C 340.714,181.161 338.381,180.828 336.5,178.5C 345.167,178.5 353.833,178.5 362.5,178.5C 361.122,179.234 359.622,179.901 358,180.5C 357.517,181.448 357.351,182.448 357.5,183.5C 363.167,182.167 368.833,182.167 374.5,183.5C 373.674,179.864 373.008,176.197 372.5,172.5 Z"/></g>
<g><path style="opacity:1" fill="#3378d4" d="M 594.5,174.5 C 598.352,175.187 600.019,177.521 599.5,181.5C 595.756,181.98 595.923,182.646 600,183.5C 602.137,182.923 604.304,182.59 606.5,182.5C 606.5,179.833 606.5,177.167 606.5,174.5C 606.833,174.5 607.167,174.5 607.5,174.5C 608.451,175.919 608.784,177.585 608.5,179.5C 608.5,181.167 608.5,182.833 608.5,184.5C 595.5,184.5 582.5,184.5 569.5,184.5C 577.138,183.024 584.971,182.024 593,181.5C 594.101,182.291 594.934,182.291 595.5,181.5C 588.858,180.336 582.192,180.169 575.5,181C 570.687,181.927 566.02,183.093 561.5,184.5C 561.5,183.5 561.5,182.5 561.5,181.5C 564.899,181.391 567.566,180.058 569.5,177.5C 578.506,177.666 587.506,177.5 596.5,177C 595.619,176.292 594.953,175.458 594.5,174.5 Z"/></g>
<g><path style="opacity:1" fill="#3c7ed5" d="M 150.5,167.5 C 152.974,169.898 154.308,172.898 154.5,176.5C 154.409,178.698 155.075,179.031 156.5,177.5C 156.616,180.91 154.95,182.244 151.5,181.5C 151.938,179.874 152.272,178.207 152.5,176.5C 151.53,173.563 150.863,170.563 150.5,167.5 Z"/></g>
<g><path style="opacity:1" fill="#4e87d6" d="M 158.5,191.5 C 161.549,184.125 160.549,183.625 155.5,190C 153.564,190.813 151.564,191.313 149.5,191.5C 149.414,190.504 149.748,189.671 150.5,189C 152.134,188.506 153.801,188.34 155.5,188.5C 155.67,187.178 155.337,186.011 154.5,185C 156.291,184.585 157.624,183.585 158.5,182C 159.793,181.51 161.127,181.343 162.5,181.5C 162.196,184.522 161.696,187.522 161,190.5C 160.329,191.252 159.496,191.586 158.5,191.5 Z"/></g>
<g><path style="opacity:1" fill="#4c83d0" d="M 199.5,163.5 C 198.403,168.88 197.403,174.213 196.5,179.5C 196.46,183.982 197.126,188.316 198.5,192.5C 195.389,188.483 194.056,183.817 194.5,178.5C 194.001,172.662 195.668,167.662 199.5,163.5 Z"/></g>
<g><path style="opacity:0.699" fill="#78a9e5" d="M 238.5,182.5 C 242.646,181.353 246.98,181.186 251.5,182C 250.891,183.948 250.224,185.782 249.5,187.5C 249.5,185.833 249.5,184.167 249.5,182.5C 245.833,182.5 242.167,182.5 238.5,182.5 Z"/></g>
<g><path style="opacity:0.254" fill="#bddffe" d="M 308.5,150.5 C 312.298,149.517 316.298,149.183 320.5,149.5C 320.83,167.008 320.497,184.341 319.5,201.5C 319.5,201.167 319.5,200.833 319.5,200.5C 319.5,183.833 319.5,167.167 319.5,150.5C 316.167,150.5 312.833,150.5 309.5,150.5C 309.167,150.5 308.833,150.5 308.5,150.5 Z"/></g>
<g><path style="opacity:1" fill="#5288d6" d="M 524.5,175.5 C 526.565,178.925 528.231,182.592 529.5,186.5C 525.592,183.905 523.925,180.238 524.5,175.5 Z"/></g>
<g><path style="opacity:0.69" fill="#6fa4dd" d="M 308.5,150.5 C 308.833,150.5 309.167,150.5 309.5,150.5C 309.5,167.167 309.5,183.833 309.5,200.5C 312.833,200.5 316.167,200.5 319.5,200.5C 319.5,200.833 319.5,201.167 319.5,201.5C 315.833,201.5 312.167,201.5 308.5,201.5C 308.5,184.5 308.5,167.5 308.5,150.5 Z"/></g>
<g><path style="opacity:1" fill="#2574d8" d="M 542.5,178.5 C 543.216,180.556 543.883,182.723 544.5,185C 543.552,185.483 542.552,185.649 541.5,185.5C 541.025,188.082 541.692,190.082 543.5,191.5C 543.5,192.833 543.5,194.167 543.5,195.5C 543.34,197.153 542.674,198.486 541.5,199.5C 535.925,200.452 530.259,200.786 524.5,200.5C 522.992,198.819 521.992,196.819 521.5,194.5C 524.084,195.048 525.084,196.715 524.5,199.5C 529.899,199.691 535.233,199.191 540.5,198C 543.386,195.458 543.053,193.625 539.5,192.5C 536.944,193.051 534.611,194.051 532.5,195.5C 531.41,194.273 530.076,193.44 528.5,193C 529.423,190.959 529.756,188.792 529.5,186.5C 530.644,188.1 531.811,189.767 533,191.5C 533.941,189.273 535.108,187.273 536.5,185.5C 538.709,183.465 540.709,181.132 542.5,178.5 Z"/></g>
<g><path style="opacity:0.988" fill="#5389d3" d="M 564.5,167.5 C 564.21,170.795 562.543,172.795 559.5,173.5C 558.33,179.512 558.33,185.512 559.5,191.5C 558.883,191.389 558.383,191.056 558,190.5C 557.139,184.415 557.473,178.415 559,172.5C 560.75,170.576 562.583,168.909 564.5,167.5 Z"/></g>
<g><path style="opacity:1" fill="#568bcd" d="M 126.5,182.5 C 129.699,182.762 131.699,184.428 132.5,187.5C 129.911,186.581 127.911,184.914 126.5,182.5 Z"/></g>
<g><path style="opacity:0.886" fill="#6295d0" d="M 280.5,184.5 C 276.131,184.467 271.798,184.8 267.5,185.5C 267.611,184.883 267.944,184.383 268.5,184C 272.689,183.188 276.689,183.355 280.5,184.5 Z"/></g>
<g><path style="opacity:0.368" fill="#98cdfe" d="M 608.5,179.5 C 609.461,181.265 609.795,183.265 609.5,185.5C 595.99,185.171 582.656,185.504 569.5,186.5C 568.833,186.5 568.5,186.167 568.5,185.5C 568.5,184.833 568.833,184.5 569.5,184.5C 582.5,184.5 595.5,184.5 608.5,184.5C 608.5,182.833 608.5,181.167 608.5,179.5 Z"/></g>
<g><path style="opacity:0.992" fill="#689edc" d="M 288.5,185.5 C 292.517,184.839 293.851,186.172 292.5,189.5C 292.586,188.504 292.252,187.671 291.5,187C 290.263,186.768 289.263,186.268 288.5,185.5 Z"/></g>
<g><path style="opacity:1" fill="#1c6bc5" d="M 309.5,150.5 C 312.833,150.5 316.167,150.5 319.5,150.5C 319.5,167.167 319.5,183.833 319.5,200.5C 316.167,200.5 312.833,200.5 309.5,200.5C 309.5,183.833 309.5,167.167 309.5,150.5 Z"/></g>
<g><path style="opacity:1" fill="#0a6fde" d="M 310.5,151.5 C 313.167,151.5 315.833,151.5 318.5,151.5C 318.5,167.167 318.5,182.833 318.5,198.5C 315.873,199.092 313.206,199.425 310.5,199.5C 310.5,183.5 310.5,167.5 310.5,151.5 Z"/></g>
<g><path style="opacity:1" fill="#0c6fde" d="M 389.5,169.5 C 391.38,169.771 392.713,169.104 393.5,167.5C 393.833,167.5 394.167,167.5 394.5,167.5C 400.373,166.558 406.206,165.558 412,164.5C 414.167,164.667 416.333,164.833 418.5,165C 414.828,167.13 410.828,167.963 406.5,167.5C 406.279,169.664 405.279,171.33 403.5,172.5C 402.833,172.5 402.5,172.833 402.5,173.5C 401.609,174.11 400.609,174.443 399.5,174.5C 397.833,174.5 396.167,174.5 394.5,174.5C 394.5,175.5 394.5,176.5 394.5,177.5C 394.167,177.5 393.833,177.5 393.5,177.5C 391.381,177.468 390.048,178.468 389.5,180.5C 388.683,182.831 388.016,185.331 387.5,188C 388.367,191.105 388.701,194.272 388.5,197.5C 385.996,198.639 383.33,199.306 380.5,199.5C 380.5,187.833 380.5,176.167 380.5,164.5C 383.167,164.5 385.833,164.5 388.5,164.5C 388.216,166.415 388.549,168.081 389.5,169.5 Z"/></g>
<g><path style="opacity:1" fill="#5f97e0" d="M 267.5,185.5 C 265.455,186.923 264.455,188.923 264.5,191.5C 263.694,190.003 263.028,188.336 262.5,186.5C 264.045,185.548 265.712,185.215 267.5,185.5 Z"/></g>
<g><path style="opacity:1" fill="#0c6fdc" d="M 428.5,171.5 C 429.167,171.833 429.833,172.167 430.5,172.5C 430.5,181.833 430.5,191.167 430.5,200.5C 427.552,200.777 424.719,200.444 422,199.5C 421.667,192.5 421.333,185.5 421,178.5C 420.665,176.497 419.832,174.83 418.5,173.5C 417.254,171.583 416.587,169.75 416.5,168C 419.063,166.921 421.729,166.421 424.5,166.5C 424.5,167.833 424.5,169.167 424.5,170.5C 425.959,170.433 427.292,170.766 428.5,171.5 Z"/></g>
<g><path style="opacity:1" fill="#1c71dd" d="M 591.5,163.5 C 591.953,164.458 592.619,165.292 593.5,166C 598.222,166.532 602.222,168.365 605.5,171.5C 605.557,172.609 605.89,173.609 606.5,174.5C 606.5,177.167 606.5,179.833 606.5,182.5C 604.304,182.59 602.137,182.923 600,183.5C 595.923,182.646 595.756,181.98 599.5,181.5C 600.019,177.521 598.352,175.187 594.5,174.5C 592.91,172.179 590.577,171.179 587.5,171.5C 583.418,171.344 579.418,171.844 575.5,173C 572.771,173.566 570.771,175.066 569.5,177.5C 567.566,180.058 564.899,181.391 561.5,181.5C 561.5,182.5 561.5,183.5 561.5,184.5C 566.02,183.093 570.687,181.927 575.5,181C 582.192,180.169 588.858,180.336 595.5,181.5C 594.934,182.291 594.101,182.291 593,181.5C 584.971,182.024 577.138,183.024 569.5,184.5C 568.833,184.5 568.5,184.833 568.5,185.5C 567.624,185.369 566.957,185.702 566.5,186.5C 567.364,188.197 568.697,189.363 570.5,190C 568.507,191.999 566.173,193.499 563.5,194.5C 562.614,193.675 562.281,192.675 562.5,191.5C 561.5,191.5 560.5,191.5 559.5,191.5C 558.33,185.512 558.33,179.512 559.5,173.5C 562.543,172.795 564.21,170.795 564.5,167.5C 566.027,167.573 567.027,166.906 567.5,165.5C 575.326,162.56 583.326,161.894 591.5,163.5 Z M 587.5,171.5 C 589.679,172.677 592.013,173.677 594.5,174.5C 594.953,175.458 595.619,176.292 596.5,177C 587.506,177.5 578.506,177.666 569.5,177.5C 570.771,175.066 572.771,173.566 575.5,173C 579.418,171.844 583.418,171.344 587.5,171.5 Z"/></g>
<g><path style="opacity:0.973" fill="#7caede" d="M 587.5,171.5 C 590.577,171.179 592.91,172.179 594.5,174.5C 592.013,173.677 589.679,172.677 587.5,171.5 Z"/></g>
<g><path style="opacity:1" fill="#4d85d0" d="M 258.5,180.5 C 257.597,182.636 256.431,184.636 255,186.5C 254.502,189.482 254.335,192.482 254.5,195.5C 251.835,191.22 252.001,186.887 255,182.5C 255.816,181.177 256.983,180.511 258.5,180.5 Z"/></g>
<g><path style="opacity:1" fill="#4580cd" d="M 372.5,192.5 C 372.5,191.167 372.5,189.833 372.5,188.5C 368.342,188.332 364.342,188.998 360.5,190.5C 360.953,189.542 361.619,188.708 362.5,188C 366.833,187.333 371.167,187.333 375.5,188C 374.601,189.652 373.601,191.152 372.5,192.5 Z"/></g>
<g><path style="opacity:1" fill="#5288cf" d="M 115.5,167.5 C 113.724,175.851 114.724,183.851 118.5,191.5C 117.292,190.766 115.959,190.433 114.5,190.5C 113.715,183.177 113.548,175.844 114,168.5C 114.383,167.944 114.883,167.611 115.5,167.5 Z"/></g>
<g><path style="opacity:1" fill="#71a8de" d="M 135.5,189.5 C 138.152,189.41 140.485,190.076 142.5,191.5C 139.848,191.59 137.515,190.924 135.5,189.5 Z"/></g>
<g><path style="opacity:1" fill="#6092d8" d="M 331.5,167.5 C 331.5,168.833 331.5,170.167 331.5,171.5C 328.287,172.164 326.121,174.164 325,177.5C 324.451,183.359 325.284,189.025 327.5,194.5C 325.883,192.879 324.716,190.879 324,188.5C 322.89,182.574 323.556,176.908 326,171.5C 327.451,169.536 329.284,168.203 331.5,167.5 Z"/></g>
<g><path style="opacity:0.783" fill="#86b1e1" d="M 379.5,163.5 C 379.5,175.833 379.5,188.167 379.5,200.5C 382.833,200.5 386.167,200.5 389.5,200.5C 389.5,193.833 389.5,187.167 389.5,180.5C 390.048,178.468 391.381,177.468 393.5,177.5C 392.878,178.627 392.045,179.627 391,180.5C 390.5,187.492 390.334,194.492 390.5,201.5C 386.5,201.5 382.5,201.5 378.5,201.5C 378.171,188.656 378.505,175.989 379.5,163.5 Z"/></g>
<g><path style="opacity:1" fill="#5185ce" d="M 435.5,187.5 C 436.496,187.414 437.329,187.748 438,188.5C 438.346,190.218 438.846,191.885 439.5,193.5C 441.261,194.917 442.594,196.583 443.5,198.5C 438.656,196.499 435.989,192.832 435.5,187.5 Z"/></g>
<g><path style="opacity:0.796" fill="#91bce9" d="M 595.5,189.5 C 595.027,190.906 594.027,191.573 592.5,191.5C 592.973,190.094 593.973,189.427 595.5,189.5 Z"/></g>
<g><path style="opacity:1" fill="#598dd5" d="M 291.5,189.5 C 291.19,191.144 290.19,192.144 288.5,192.5C 284.548,193.272 280.548,193.605 276.5,193.5C 281.394,192.181 286.394,190.848 291.5,189.5 Z"/></g>
<g><path style="opacity:1" fill="#3377d5" d="M 568.5,185.5 C 568.5,186.167 568.833,186.5 569.5,186.5C 572.853,190.763 577.353,192.763 583,192.5C 585.817,191.969 588.65,191.636 591.5,191.5C 591.5,192.5 591.5,193.5 591.5,194.5C 584.353,194.724 577.353,194.224 570.5,193C 570.167,193.333 569.833,193.667 569.5,194C 571.382,196.043 573.049,198.209 574.5,200.5C 571.498,198.58 568.165,197.58 564.5,197.5C 562.086,196.089 560.419,194.089 559.5,191.5C 560.5,191.5 561.5,191.5 562.5,191.5C 562.281,192.675 562.614,193.675 563.5,194.5C 566.173,193.499 568.507,191.999 570.5,190C 568.697,189.363 567.364,188.197 566.5,186.5C 566.957,185.702 567.624,185.369 568.5,185.5 Z"/></g>
<g><path style="opacity:0.965" fill="#719ed8" d="M 249.5,188.5 C 249.155,191.198 247.822,193.198 245.5,194.5C 246.31,192.202 247.144,189.868 248,187.5C 248.383,188.056 248.883,188.389 249.5,188.5 Z"/></g>
<g><path style="opacity:1" fill="#1b6dc8" d="M 379.5,163.5 C 382.833,163.5 386.167,163.5 389.5,163.5C 389.5,165.5 389.5,167.5 389.5,169.5C 388.549,168.081 388.216,166.415 388.5,164.5C 385.833,164.5 383.167,164.5 380.5,164.5C 380.5,176.167 380.5,187.833 380.5,199.5C 383.33,199.306 385.996,198.639 388.5,197.5C 388.701,194.272 388.367,191.105 387.5,188C 388.016,185.331 388.683,182.831 389.5,180.5C 389.5,187.167 389.5,193.833 389.5,200.5C 386.167,200.5 382.833,200.5 379.5,200.5C 379.5,188.167 379.5,175.833 379.5,163.5 Z"/></g>
<g><path style="opacity:0.98" fill="#7aa1d6" d="M 543.5,191.5 C 544.167,191.5 544.833,191.5 545.5,191.5C 545.34,193.153 544.674,194.486 543.5,195.5C 543.5,194.167 543.5,192.833 543.5,191.5 Z"/></g>
<g><path style="opacity:0.604" fill="#7ebdee" d="M 158.5,191.5 C 158.573,193.027 157.906,194.027 156.5,194.5C 156.427,192.973 157.094,191.973 158.5,191.5 Z"/></g>
<g><path style="opacity:1" fill="#2473db" d="M 206.5,169.5 C 207.434,170.568 207.768,171.901 207.5,173.5C 206.122,177.951 206.455,182.284 208.5,186.5C 208.5,188.5 209.5,189.5 211.5,189.5C 212.492,189.328 213.158,189.662 213.5,190.5C 213.918,191.222 214.584,191.722 215.5,192C 220.5,192.667 225.5,192.667 230.5,192C 232.32,191.8 233.653,190.966 234.5,189.5C 236.564,187.508 237.897,185.175 238.5,182.5C 242.167,182.5 245.833,182.5 249.5,182.5C 249.5,184.167 249.5,185.833 249.5,187.5C 249.5,187.833 249.5,188.167 249.5,188.5C 248.883,188.389 248.383,188.056 248,187.5C 247.144,189.868 246.31,192.202 245.5,194.5C 245.167,195.5 244.5,196.167 243.5,196.5C 240.223,197.423 236.89,198.256 233.5,199C 232.619,199.708 231.953,200.542 231.5,201.5C 224.164,202.632 216.831,202.465 209.5,201C 207.273,200.059 205.273,198.892 203.5,197.5C 202.738,195.738 201.404,194.738 199.5,194.5C 198.662,194.158 198.328,193.492 198.5,192.5C 200.262,192.357 201.929,192.691 203.5,193.5C 204.584,192.335 205.417,191.002 206,189.5C 205.406,185.756 204.906,181.923 204.5,178C 204.883,175.049 205.549,172.215 206.5,169.5 Z"/></g>
<g><path style="opacity:1" fill="#5a96da" d="M 234.5,189.5 C 233.653,190.966 232.32,191.8 230.5,192C 225.5,192.667 220.5,192.667 215.5,192C 214.584,191.722 213.918,191.222 213.5,190.5C 220.61,192.055 227.61,191.722 234.5,189.5 Z"/></g>
<g><path style="opacity:0.89" fill="#8ec6e8" d="M 208.5,186.5 C 209.833,187.167 210.833,188.167 211.5,189.5C 209.5,189.5 208.5,188.5 208.5,186.5 Z"/></g>
<g><path style="opacity:1" fill="#528bdc" d="M 335.5,184.5 C 348.833,184.5 362.167,184.5 375.5,184.5C 362.34,185.331 349.006,185.831 335.5,186C 338.979,190.809 343.813,192.976 350,192.5C 353.555,192.022 357.055,191.355 360.5,190.5C 359.637,191.94 359.637,193.274 360.5,194.5C 353.563,194.61 346.563,194.777 339.5,195C 336.553,195.112 335.22,196.612 335.5,199.5C 335.167,199.5 334.833,199.5 334.5,199.5C 333.833,199.167 333.167,198.833 332.5,198.5C 332.167,197.833 331.833,197.167 331.5,196.5C 333.794,194.763 336.46,193.596 339.5,193C 338.057,191.933 336.724,190.766 335.5,189.5C 334.212,187.701 334.212,186.035 335.5,184.5 Z"/></g>
<g><path style="opacity:1" fill="#156ed1" d="M 492.5,163.5 C 495.833,163.5 499.167,163.5 502.5,163.5C 502.5,164.167 502.5,164.833 502.5,165.5C 499.609,164.597 496.609,164.264 493.5,164.5C 493.862,175.543 494.695,186.543 496,197.5C 496.333,197.167 496.667,196.833 497,196.5C 497.71,197.973 498.876,198.64 500.5,198.5C 500.682,196.409 500.348,194.409 499.5,192.5C 500.045,184.651 501.045,176.984 502.5,169.5C 502.5,179.833 502.5,190.167 502.5,200.5C 499.167,200.5 495.833,200.5 492.5,200.5C 492.5,188.167 492.5,175.833 492.5,163.5 Z"/></g>
<g><path style="opacity:1" fill="#6197d8" d="M 118.5,191.5 C 120.167,192.5 121.5,193.833 122.5,195.5C 119.858,195.512 118.525,194.179 118.5,191.5 Z"/></g>
<g><path style="opacity:0.859" fill="#93b6e0" d="M 199.5,194.5 C 201.404,194.738 202.738,195.738 203.5,197.5C 201.596,197.262 200.262,196.262 199.5,194.5 Z"/></g>
<g><path style="opacity:1" fill="#5588d5" d="M 564.5,197.5 C 568.165,197.58 571.498,198.58 574.5,200.5C 580.176,200.666 585.843,200.499 591.5,200C 593.019,198.649 594.352,197.149 595.5,195.5C 596.968,197.333 598.635,197.666 600.5,196.5C 599.5,194.167 600.167,193.5 602.5,194.5C 604.503,192.867 605.836,190.867 606.5,188.5C 602.766,188.323 599.099,188.656 595.5,189.5C 595.611,188.883 595.944,188.383 596.5,188C 600.486,187.501 604.486,187.334 608.5,187.5C 606.859,194.872 602.192,199.372 594.5,201C 586.833,203 579.167,203 571.5,201C 568.826,200.33 566.493,199.163 564.5,197.5 Z"/></g>
<g><path style="opacity:1" fill="#3779d4" d="M 298.5,167.5 C 301.207,170.247 302.873,173.58 303.5,177.5C 303.5,185.167 303.5,192.833 303.5,200.5C 300.167,200.5 296.833,200.5 293.5,200.5C 293.5,199.167 293.5,197.833 293.5,196.5C 289.394,196.304 286.061,197.637 283.5,200.5C 275.393,203.026 267.393,203.026 259.5,200.5C 266.284,200.92 272.95,200.42 279.5,199C 277.699,198.683 277.366,198.016 278.5,197C 280.715,196.83 282.715,196.163 284.5,195C 277.962,194.225 271.462,194.391 265,195.5C 264.5,195.333 264,195.167 263.5,195C 264.337,193.989 264.67,192.822 264.5,191.5C 268.3,193.143 272.3,193.81 276.5,193.5C 280.548,193.605 284.548,193.272 288.5,192.5C 288.414,193.496 288.748,194.329 289.5,195C 291.134,195.494 292.801,195.66 294.5,195.5C 294.5,196.833 294.5,198.167 294.5,199.5C 297.167,199.5 299.833,199.5 302.5,199.5C 302.666,192.159 302.5,184.826 302,177.5C 299.985,174.469 298.819,171.136 298.5,167.5 Z"/></g>
<g><path style="opacity:1" fill="#6093d9" d="M 372.5,193.5 C 370.977,196.364 368.643,198.031 365.5,198.5C 367.982,196.961 367.982,195.461 365.5,194C 367.81,193.503 370.143,193.337 372.5,193.5 Z"/></g>
<g><path style="opacity:1" fill="#5e92d5" d="M 402.5,173.5 C 402.5,172.833 402.833,172.5 403.5,172.5C 408.562,172.274 413.562,172.608 418.5,173.5C 419.832,174.83 420.665,176.497 421,178.5C 421.333,185.5 421.667,192.5 422,199.5C 424.719,200.444 427.552,200.777 430.5,200.5C 430.5,191.167 430.5,181.833 430.5,172.5C 431.494,181.986 431.827,191.652 431.5,201.5C 427.5,201.5 423.5,201.5 419.5,201.5C 419.938,193.057 419.438,184.723 418,176.5C 417.097,175.299 415.931,174.465 414.5,174C 410.514,173.501 406.514,173.334 402.5,173.5 Z"/></g>
<g><path style="opacity:1" fill="#116fde" d="M 521.5,169.5 C 522.5,171.5 523.5,173.5 524.5,175.5C 523.925,180.238 525.592,183.905 529.5,186.5C 529.756,188.792 529.423,190.959 528.5,193C 530.076,193.44 531.41,194.273 532.5,195.5C 534.611,194.051 536.944,193.051 539.5,192.5C 543.053,193.625 543.386,195.458 540.5,198C 535.233,199.191 529.899,199.691 524.5,199.5C 525.084,196.715 524.084,195.048 521.5,194.5C 520.767,189.134 518.767,184.301 515.5,180C 515.833,179.667 516.167,179.333 516.5,179C 514.6,176.627 512.6,174.46 510.5,172.5C 509.094,172.027 508.427,171.027 508.5,169.5C 508.5,167.833 508.5,166.167 508.5,164.5C 511.833,164.5 515.167,164.5 518.5,164.5C 518.273,166.933 519.273,168.599 521.5,169.5 Z"/></g>
<g><path style="opacity:1" fill="#7ba9e3" d="M 303.5,177.5 C 304.492,185.316 304.826,193.316 304.5,201.5C 300.5,201.5 296.5,201.5 292.5,201.5C 292.657,200.127 292.49,198.793 292,197.5C 289.273,198.798 286.44,199.798 283.5,200.5C 286.061,197.637 289.394,196.304 293.5,196.5C 293.5,197.833 293.5,199.167 293.5,200.5C 296.833,200.5 300.167,200.5 303.5,200.5C 303.5,192.833 303.5,185.167 303.5,177.5 Z"/></g>
<g><path style="opacity:1" fill="#0c6edd" d="M 372.5,192.5 C 372.5,192.833 372.5,193.167 372.5,193.5C 370.143,193.337 367.81,193.503 365.5,194C 367.982,195.461 367.982,196.961 365.5,198.5C 356.587,200.702 347.587,201.036 338.5,199.5C 337.5,199.5 336.5,199.5 335.5,199.5C 335.22,196.612 336.553,195.112 339.5,195C 346.563,194.777 353.563,194.61 360.5,194.5C 359.637,193.274 359.637,191.94 360.5,190.5C 364.342,188.998 368.342,188.332 372.5,188.5C 372.5,189.833 372.5,191.167 372.5,192.5 Z"/></g>
<g><path style="opacity:1" fill="#6797d8" d="M 254.5,196.5 C 257.063,196.731 258.73,198.065 259.5,200.5C 257.251,199.92 255.585,198.587 254.5,196.5 Z"/></g>
<g><path style="opacity:0.416" fill="#a8c7f0" d="M 329.5,196.5 C 330.167,196.5 330.833,196.5 331.5,196.5C 331.833,197.167 332.167,197.833 332.5,198.5C 330.973,198.573 329.973,197.906 329.5,196.5 Z"/></g>
<g><path style="opacity:1" fill="#6b98d8" d="M 243.5,196.5 C 240.232,199.707 236.232,201.373 231.5,201.5C 231.953,200.542 232.619,199.708 233.5,199C 236.89,198.256 240.223,197.423 243.5,196.5 Z"/></g>
<g><path style="opacity:1" fill="#1971dc" d="M 486.5,150.5 C 486.5,167.167 486.5,183.833 486.5,200.5C 483.167,200.5 479.833,200.5 476.5,200.5C 476.66,198.801 476.494,197.134 476,195.5C 475.283,196.044 474.783,196.711 474.5,197.5C 471.423,197.179 469.09,198.179 467.5,200.5C 459.291,200.984 451.291,200.317 443.5,198.5C 442.594,196.583 441.261,194.917 439.5,193.5C 438.846,191.885 438.346,190.218 438,188.5C 437.329,187.748 436.496,187.414 435.5,187.5C 434.225,184.396 434.225,181.396 435.5,178.5C 436.989,176.884 437.989,174.884 438.5,172.5C 442.374,168.738 446.707,165.738 451.5,163.5C 455.733,162.206 460.066,162.206 464.5,163.5C 466.749,166.153 469.749,167.486 473.5,167.5C 473.833,167.5 474.167,167.5 474.5,167.5C 474.56,168.043 474.893,168.376 475.5,168.5C 476.496,162.537 476.829,156.537 476.5,150.5C 479.833,150.5 483.167,150.5 486.5,150.5 Z M 469.5,173.5 C 474.338,175.983 476.338,179.983 475.5,185.5C 474.197,187.142 472.864,188.809 471.5,190.5C 464.441,191.996 457.441,191.829 450.5,190C 446.254,185.951 445.587,181.451 448.5,176.5C 455.009,172.643 462.009,171.643 469.5,173.5 Z"/></g>
<g><path style="opacity:1" fill="#4983d2" d="M 448.5,173.5 C 448.5,174.5 448.5,175.5 448.5,176.5C 445.587,181.451 446.254,185.951 450.5,190C 457.441,191.829 464.441,191.996 471.5,190.5C 469.048,193.241 465.881,194.575 462,194.5C 456.185,194.371 450.685,193.038 445.5,190.5C 445.291,189.914 444.957,189.414 444.5,189C 445.293,185.589 445.793,182.089 446,178.5C 446.05,176.256 446.883,174.589 448.5,173.5 Z"/></g>
<g><path style="opacity:0.831" fill="#80a5dc" d="M 475.5,185.5 C 475.817,188.546 474.484,190.213 471.5,190.5C 472.864,188.809 474.197,187.142 475.5,185.5 Z"/></g>
<g><path style="opacity:1" fill="#719fd9" d="M 469.5,173.5 C 462.009,171.643 455.009,172.643 448.5,176.5C 448.5,175.5 448.5,174.5 448.5,173.5C 454.591,171.659 460.924,171.159 467.5,172C 468.416,172.278 469.082,172.778 469.5,173.5 Z"/></g>
<g><path style="opacity:1" fill="#4d84cf" d="M 464.5,163.5 C 468.102,163.692 471.102,165.026 473.5,167.5C 469.749,167.486 466.749,166.153 464.5,163.5 Z"/></g>
<g><path style="opacity:1" fill="#6699d1" d="M 474.5,197.5 C 472.574,199.293 470.241,200.293 467.5,200.5C 469.09,198.179 471.423,197.179 474.5,197.5 Z"/></g>
<g><path style="opacity:1" fill="#0c6fde" d="M 574.5,200.5 C 573.049,198.209 571.382,196.043 569.5,194C 569.833,193.667 570.167,193.333 570.5,193C 577.353,194.224 584.353,194.724 591.5,194.5C 591.5,193.5 591.5,192.5 591.5,191.5C 591.833,191.5 592.167,191.5 592.5,191.5C 594.027,191.573 595.027,190.906 595.5,189.5C 599.099,188.656 602.766,188.323 606.5,188.5C 605.836,190.867 604.503,192.867 602.5,194.5C 600.167,193.5 599.5,194.167 600.5,196.5C 598.635,197.666 596.968,197.333 595.5,195.5C 594.352,197.149 593.019,198.649 591.5,200C 585.843,200.499 580.176,200.666 574.5,200.5 Z"/></g>
<g><path style="opacity:1" fill="#5f93d8" d="M 156.5,194.5 C 155.306,199.7 151.972,202.033 146.5,201.5C 149.83,199.171 153.164,196.838 156.5,194.5 Z"/></g>
<g><path style="opacity:0.651" fill="#7eb0e2" d="M 334.5,199.5 C 334.833,199.5 335.167,199.5 335.5,199.5C 336.5,199.5 337.5,199.5 338.5,199.5C 339.5,200.167 340.5,200.833 341.5,201.5C 338.848,201.59 336.515,200.924 334.5,199.5 Z"/></g>
<g><path style="opacity:1" fill="#608ed6" d="M 365.5,198.5 C 364.4,199.558 363.066,200.392 361.5,201C 354.833,202.466 348.166,202.632 341.5,201.5C 340.5,200.833 339.5,200.167 338.5,199.5C 347.587,201.036 356.587,200.702 365.5,198.5 Z"/></g>
<g><path style="opacity:1" fill="#6895da" d="M 443.5,198.5 C 451.291,200.317 459.291,200.984 467.5,200.5C 461.031,202.962 454.365,203.129 447.5,201C 445.68,200.8 444.347,199.966 443.5,198.5 Z"/></g>
<g><path style="opacity:0.714" fill="#6ca4e6" d="M 541.5,199.5 C 539.085,200.814 536.252,201.481 533,201.5C 529.979,201.498 527.146,201.164 524.5,200.5C 530.259,200.786 535.925,200.452 541.5,199.5 Z"/></g>
<g><path style="opacity:1" fill="#1a72dd" d="M 118.5,155.5 C 117.794,158.124 117.128,161.124 116.5,164.5C 116.737,165.791 116.404,166.791 115.5,167.5C 114.883,167.611 114.383,167.944 114,168.5C 113.548,175.844 113.715,183.177 114.5,190.5C 115.959,190.433 117.292,190.766 118.5,191.5C 118.525,194.179 119.858,195.512 122.5,195.5C 129.324,200.789 136.991,202.789 145.5,201.5C 145.5,202.5 145.5,203.5 145.5,204.5C 139.377,204.177 133.377,204.843 127.5,206.5C 128.901,207.521 130.235,208.521 131.5,209.5C 130.784,209.783 129.951,210.116 129,210.5C 122.222,209.85 115.389,209.183 108.5,208.5C 109.247,204.862 109.914,201.195 110.5,197.5C 107.935,185.357 106.769,173.023 107,160.5C 106.59,159.099 106.09,157.766 105.5,156.5C 106.583,156.539 107.583,156.873 108.5,157.5C 109.36,155.069 111.027,153.736 113.5,153.5C 113.238,154.978 113.571,156.311 114.5,157.5C 114.833,156.5 115.167,155.5 115.5,154.5C 114.522,152.223 113.855,149.89 113.5,147.5C 115.722,147.822 117.556,147.155 119,145.5C 120.976,146.543 121.476,147.877 120.5,149.5C 118.998,150.083 117.665,150.916 116.5,152C 117.823,152.816 118.489,153.983 118.5,155.5 Z"/></g>
<g><path style="opacity:1" fill="#6a97d6" d="M 179.5,147.5 C 180.302,148.952 180.802,150.618 181,152.5C 181.667,168.167 181.667,183.833 181,199.5C 180.313,206.236 177.146,211.236 171.5,214.5C 171.5,213.167 171.5,211.833 171.5,210.5C 172.5,210.5 173.5,210.5 174.5,210.5C 174.5,209.5 174.5,208.5 174.5,207.5C 175.5,207.5 176.5,207.5 177.5,207.5C 177.231,205.571 177.731,203.905 179,202.5C 179.5,184.17 179.667,165.836 179.5,147.5 Z"/></g>
<g><path style="opacity:0.267" fill="#b2d4f1" d="M 106.5,215.5 C 108.027,215.427 109.027,216.094 109.5,217.5C 107.973,217.573 106.973,216.906 106.5,215.5 Z"/></g>
</svg>
