<svg width="96" height="49" viewBox="0 0 96 49" fill="none" xmlns="http://www.w3.org/2000/svg">
<path d="M2.448 32V6.8H8.28V26.816H17.64V32H2.448ZM41.9116 28.868C39.4636 31.436 36.1996 32.72 32.1196 32.72C28.0396 32.72 24.7756 31.436 22.3276 28.868C19.8796 26.276 18.6556 23.12 18.6556 19.4C18.6556 15.68 19.8796 12.536 22.3276 9.968C24.7756 7.376 28.0396 6.08 32.1196 6.08C36.1996 6.08 39.4636 7.376 41.9116 9.968C44.3596 12.536 45.5836 15.68 45.5836 19.4C45.5836 23.12 44.3596 26.276 41.9116 28.868ZM32.1196 27.5C34.4236 27.5 36.2236 26.732 37.5196 25.196C38.8396 23.636 39.4996 21.704 39.4996 19.4C39.4996 17.096 38.8396 15.176 37.5196 13.64C36.2236 12.08 34.4236 11.3 32.1196 11.3C29.7916 11.3 27.9676 12.08 26.6476 13.64C25.3516 15.176 24.7156 17.096 24.7396 19.4C24.7156 21.704 25.3516 23.636 26.6476 25.196C27.9676 26.732 29.7916 27.5 32.1196 27.5ZM76.0995 18.752V23.144H73.7235C73.0755 26.192 71.6475 28.556 69.4395 30.236C67.2555 31.892 64.4355 32.72 60.9795 32.72C56.9955 32.72 53.7675 31.484 51.2955 29.012C48.8475 26.516 47.6355 23.348 47.6595 19.508C47.6595 15.692 48.8715 12.5 51.2955 9.932C53.7435 7.364 57.0795 6.08 61.3035 6.08C64.6395 6.08 67.3995 6.884 69.5835 8.492C71.7915 10.1 73.0035 12.14 73.2195 14.612H66.8475C66.6075 13.532 65.9955 12.656 65.0115 11.984C64.0515 11.312 62.8275 10.976 61.3395 10.976C58.8675 10.976 56.9715 11.756 55.6515 13.316C54.3555 14.876 53.7195 16.904 53.7435 19.4C53.7195 21.8 54.3795 23.78 55.7235 25.34C57.0915 26.876 58.8915 27.644 61.1235 27.644C64.6515 27.644 66.8475 26.144 67.7115 23.144H63.2115V18.752H76.0995Z" fill="black"/>
<path d="M73.392 36.432C72.432 36.432 71.748 36.216 71.34 35.784C70.956 35.352 70.764 34.812 70.764 34.164C70.764 33.78 70.824 33.384 70.944 32.976C71.064 32.568 71.22 32.16 71.412 31.752C71.244 31.656 71.16 31.536 71.16 31.392C71.16 31.176 71.412 30.984 71.916 30.816C72.132 30.504 72.396 30.084 72.708 29.556C73.044 29.004 73.404 28.452 73.788 27.9C74.196 27.348 74.616 26.88 75.048 26.496C75.48 26.112 75.9 25.92 76.308 25.92C76.644 25.92 76.86 26.052 76.956 26.316C77.052 26.292 77.184 26.28 77.352 26.28C78.048 26.28 78.396 26.64 78.396 27.36C78.396 27.912 78.204 28.44 77.82 28.944C77.436 29.424 76.98 29.724 76.452 29.844L76.488 30.024C76.488 30.024 76.608 30.012 76.848 29.988C77.088 29.94 77.292 29.904 77.46 29.88C77.868 29.856 78.312 29.856 78.792 29.88C79.272 29.904 79.584 30.012 79.728 30.204C79.776 30.252 79.764 30.288 79.692 30.312C79.644 30.336 79.596 30.336 79.548 30.312C79.356 30.216 79.044 30.168 78.612 30.168C78.036 30.168 77.352 30.24 76.56 30.384C75.792 30.528 75.084 30.708 74.436 30.924C73.788 31.116 73.344 31.296 73.104 31.464C72.888 31.8 72.672 32.232 72.456 32.76C72.24 33.264 72.132 33.756 72.132 34.236C72.132 34.668 72.252 35.04 72.492 35.352C72.756 35.64 73.224 35.784 73.896 35.784C74.616 35.784 75.276 35.604 75.876 35.244C76.5 34.884 77.076 34.44 77.604 33.912C78.132 33.36 78.6 32.844 79.008 32.364C79.056 32.316 79.224 32.124 79.512 31.788C79.8 31.452 80.1 31.092 80.412 30.708C80.748 30.3 80.988 29.988 81.132 29.772C81.132 29.772 81.156 29.796 81.204 29.844C81.252 29.94 81.24 30.036 81.168 30.132C80.856 30.516 80.544 30.924 80.232 31.356C79.92 31.788 79.596 32.208 79.26 32.616C78.78 33.216 78.24 33.816 77.64 34.416C77.064 34.992 76.428 35.472 75.732 35.856C75.036 36.24 74.256 36.432 73.392 36.432ZM73.464 30.744C73.92 30.576 74.28 30.456 74.544 30.384C74.808 30.312 75.048 30.228 75.264 30.132C75.48 30.012 75.684 29.88 75.876 29.736C76.092 29.568 76.32 29.34 76.56 29.052C76.776 28.788 76.956 28.5 77.1 28.188C77.244 27.852 77.316 27.552 77.316 27.288C77.316 27.048 77.244 26.856 77.1 26.712C76.956 26.568 76.704 26.664 76.344 27C75.984 27.312 75.6 27.708 75.192 28.188C74.808 28.668 74.448 29.148 74.112 29.628C73.8 30.108 73.584 30.48 73.464 30.744ZM81.4687 36.036C80.8207 36.036 80.3647 35.88 80.1007 35.568C79.8367 35.256 79.7047 34.848 79.7047 34.344C79.7047 34.08 79.7287 33.804 79.7767 33.516C79.8487 33.228 79.9327 32.928 80.0287 32.616C80.1487 32.184 80.2927 31.764 80.4607 31.356C80.6527 30.924 80.8567 30.504 81.0727 30.096L82.4047 27.54C82.4287 27.492 82.4527 27.444 82.4767 27.396C82.5247 27.348 82.5607 27.3 82.5847 27.252C82.4407 27.276 82.2967 27.324 82.1527 27.396C82.0087 27.444 81.8767 27.492 81.7567 27.54C81.5887 27.612 81.4087 27.684 81.2167 27.756C81.0487 27.804 80.9047 27.852 80.7847 27.9C80.7127 27.924 80.6167 27.936 80.4967 27.936C80.3287 27.936 80.2447 27.876 80.2447 27.756C80.2447 27.564 80.3407 27.36 80.5327 27.144C80.7487 26.928 80.9407 26.808 81.1087 26.784C81.3727 26.736 81.6727 26.664 82.0087 26.568C82.3687 26.472 82.7167 26.388 83.0527 26.316C83.3887 25.692 83.6887 25.056 83.9527 24.408C84.2407 23.76 84.4567 23.1 84.6007 22.428C84.6487 22.308 84.6727 22.2 84.6727 22.104C84.6727 21.984 84.6727 21.876 84.6727 21.78C84.6727 21.468 84.6007 21.264 84.4567 21.168C84.3367 21.048 84.1807 20.988 83.9887 20.988C83.8207 20.988 83.6167 21.024 83.3767 21.096C83.1367 21.168 82.9207 21.264 82.7287 21.384L82.7647 21.312C82.7647 21.144 82.8007 21.06 82.8727 21.06L84.7447 20.304L85.8607 19.764C86.0527 19.668 86.2207 19.584 86.3647 19.512C86.5087 19.44 86.5927 19.404 86.6167 19.404H86.6527C86.8927 19.404 87.0127 19.572 87.0127 19.908C87.0127 20.148 86.9407 20.448 86.7967 20.808C86.4367 21.696 86.0167 22.584 85.5367 23.472C85.0807 24.36 84.6127 25.248 84.1327 26.136C84.5167 26.088 84.8647 26.064 85.1767 26.064C85.5127 26.064 85.8367 26.076 86.1487 26.1C86.4847 26.124 86.7247 26.244 86.8687 26.46C87.0367 26.652 87.1207 26.856 87.1207 27.072C87.1207 27.168 87.0967 27.288 87.0487 27.432C87.0247 27.528 86.9887 27.576 86.9407 27.576C86.7967 27.576 86.7487 27.48 86.7967 27.288C86.9167 27 86.8807 26.796 86.6887 26.676C86.4967 26.556 86.2327 26.496 85.8967 26.496C85.8007 26.496 85.6927 26.508 85.5727 26.532C85.4527 26.532 85.3327 26.544 85.2127 26.568C84.9487 26.592 84.6847 26.64 84.4207 26.712C84.1567 26.784 83.9287 26.844 83.7367 26.892L82.9087 28.476C82.8127 28.644 82.6567 28.956 82.4407 29.412C82.2487 29.844 82.0327 30.348 81.7927 30.924C81.5767 31.5 81.3847 32.076 81.2167 32.652C81.0727 33.204 81.0007 33.696 81.0007 34.128C81.0007 34.608 81.1447 34.944 81.4327 35.136C81.6007 35.232 81.7807 35.28 81.9727 35.28C82.4287 35.28 82.9087 35.1 83.4127 34.74C83.9167 34.356 84.3847 33.936 84.8167 33.48C85.2487 33 85.5727 32.64 85.7887 32.4C85.8367 32.352 86.0047 32.16 86.2927 31.824C86.5807 31.488 86.8807 31.128 87.1927 30.744C87.5287 30.336 87.7687 30.024 87.9127 29.808C87.9127 29.808 87.9367 29.832 87.9847 29.88C88.0327 29.976 88.0207 30.072 87.9487 30.168C87.6607 30.552 87.3487 30.96 87.0127 31.392C86.7007 31.8 86.3767 32.208 86.0407 32.616C85.7047 33.048 85.2847 33.54 84.7807 34.092C84.3007 34.62 83.7727 35.076 83.1967 35.46C82.6447 35.844 82.0687 36.036 81.4687 36.036ZM87.7163 36.252C86.9723 36.252 86.4443 36.084 86.1323 35.748C85.8443 35.388 85.7003 34.944 85.7003 34.416C85.7003 33.888 85.8083 33.336 86.0243 32.76C86.2643 32.16 86.5403 31.608 86.8523 31.104C87.5963 29.928 88.5083 28.896 89.5883 28.008C90.6923 27.096 91.7483 26.532 92.7563 26.316C92.8523 26.292 92.9363 26.28 93.0083 26.28C93.0803 26.256 93.1523 26.244 93.2243 26.244C93.8483 26.244 94.1603 26.604 94.1603 27.324C94.1603 27.564 94.1243 27.792 94.0523 28.008C93.9803 28.2 93.9083 28.332 93.8363 28.404C93.7643 28.5 93.7163 28.548 93.6923 28.548C93.6203 27.972 93.3803 27.636 92.9723 27.54C92.7323 27.468 92.4803 27.432 92.2163 27.432C91.5203 27.432 90.8723 27.648 90.2723 28.08C89.6723 28.488 89.1563 29.004 88.7243 29.628C88.3163 30.228 87.9923 30.828 87.7523 31.428C87.4883 32.1 87.3563 32.724 87.3563 33.3C87.3563 33.828 87.4763 34.272 87.7163 34.632C87.9803 34.968 88.4123 35.136 89.0123 35.136C89.9483 35.136 90.8243 34.848 91.6403 34.272C92.4803 33.672 93.2483 32.952 93.9443 32.112C94.6403 31.272 95.2403 30.504 95.7443 29.808C95.7683 29.784 95.7923 29.796 95.8163 29.844C95.8883 29.916 95.8883 30.012 95.8163 30.132C95.6003 30.444 95.3723 30.756 95.1323 31.068C94.8923 31.38 94.6403 31.704 94.3763 32.04C93.8483 32.712 93.2483 33.372 92.5763 34.02C91.9043 34.668 91.1603 35.208 90.3443 35.64C89.5523 36.048 88.6763 36.252 87.7163 36.252Z" fill="#0099CC"/>
</svg>
