<svg width="196" height="54" viewBox="0 0 196 54" fill="none" xmlns="http://www.w3.org/2000/svg">
<path fill-rule="evenodd" clip-rule="evenodd" d="M89.2914 33.208C87.9281 33.5224 87.2229 33.103 87.2229 32.2C87.2229 30.9628 88.5021 30.4675 90.3297 30.4675C91.1335 30.4675 91.8919 30.537 91.8919 30.537C91.8919 31.0666 90.7409 32.8738 89.2914 33.208ZM90.6785 20.821C86.3146 20.821 83.1816 22.4258 83.1816 22.4258V27.1431C83.1816 27.1431 86.6407 25.1546 89.4471 25.1546C91.6859 25.1546 91.9613 26.3626 91.8598 27.3648C91.8598 27.3648 91.2135 27.1939 89.243 27.1939C84.5979 27.1939 82.2541 29.305 82.2541 32.6894C82.2541 35.9001 84.8884 37.2418 87.1086 37.2418C90.3472 37.2418 91.7717 35.0648 92.2086 34.0323C92.5125 33.3159 92.5685 32.8329 92.8404 32.8329C93.1524 32.8329 93.0474 33.1794 93.0317 33.8923C93.006 35.1412 93.0655 36.085 93.2633 36.8807H97.5583V29.155C97.5583 24.3315 95.8515 20.821 90.6785 20.821Z" fill="#100F0D"/>
<path fill-rule="evenodd" clip-rule="evenodd" d="M118.947 29.0392C118.947 27.6281 120.259 26.3431 122.667 26.3431C125.29 26.3431 127.401 27.6066 127.874 27.8936V22.4324C127.874 22.4324 126.207 20.8271 122.109 20.8271C117.79 20.8271 114.192 23.3547 114.192 28.7954C114.192 34.2355 117.457 37.2525 122.098 37.2525C125.723 37.2525 127.884 35.2604 127.884 35.2604V30.074C127.2 30.4561 125.296 31.7785 122.693 31.7785C119.938 31.7785 118.947 30.5104 118.947 29.0392ZM61.5417 21.1847C61.5423 21.1882 61.8158 22.3618 61.4553 23.8966C61.2716 24.6771 60.9339 25.3409 61.3416 25.3409C61.6228 25.3409 61.6234 25.1076 61.9891 24.2711C62.524 23.0484 63.6516 20.823 66.2865 20.823C68.7913 20.823 69.9714 22.3449 70.3622 23.77C70.6597 24.8527 70.3996 25.3409 70.7624 25.3409C71.0202 25.3409 71.1095 24.7792 71.4268 24.0687C71.9967 22.7958 73.2363 20.823 75.7434 20.823C79.5263 20.823 80.9707 23.5547 80.9707 27.6526V36.8862H75.3509V28.3736C75.3509 26.9544 75.1216 25.5777 73.8278 25.5777C72.629 25.5777 72.0702 27.7022 72.0702 29.0736V36.8897H66.3472V28.3742C66.3472 26.5583 66.0911 25.5783 64.8148 25.5783C63.7099 25.5783 63.0653 27.5331 63.0653 29.0742V36.8868H57.365V21.1847H61.5417ZM99.429 21.2063C99.4313 21.2074 100.401 21.7668 102.284 21.7668C104.171 21.7668 105.129 21.2063 105.129 21.2063V36.8903H99.429V21.2063ZM146.486 21.2063C146.488 21.2074 147.458 21.7668 149.342 21.7668C151.228 21.7668 152.186 21.2063 152.186 21.2063V36.8903H146.486V21.2063ZM112.674 16.4311V36.8903H106.973V16.4311H112.674ZM134.649 16.4311C134.649 16.4329 134.885 17.0209 134.885 18.7697C134.885 21.3521 134.323 23.4538 134.058 24.2547C133.917 24.6788 133.666 25.3333 134.026 25.345C134.234 25.3514 134.359 25.0387 134.613 24.4962C134.866 23.9532 136.122 20.8265 139.421 20.8265C143.966 20.8265 144.634 24.5482 144.634 28.5784V36.8897H138.934V28.2371C138.934 26.4626 138.562 25.5812 137.372 25.5812C135.936 25.5812 135.429 27.8049 135.429 29.0777V36.8897H129.728V16.4305L134.649 16.4311ZM158.288 21.1847C158.289 21.1882 158.562 22.3618 158.202 23.8966C158.018 24.6771 157.68 25.3409 158.088 25.3409C158.369 25.3409 158.37 25.1076 158.736 24.2711C159.27 23.0484 160.398 20.823 163.033 20.823C165.652 20.823 166.691 22.3519 167.109 23.77C167.389 24.7202 167.146 25.3409 167.509 25.3409C167.767 25.3409 167.856 24.7792 168.173 24.0687C168.742 22.7958 169.983 20.823 172.49 20.823C176.273 20.823 177.717 23.5547 177.717 27.6526V36.8862H172.097V28.3736C172.097 26.9544 171.868 25.5777 170.574 25.5777C169.376 25.5777 168.816 27.7022 168.816 29.0736V36.8897H163.093V28.3742C163.093 26.5583 162.838 25.5783 161.561 25.5783C160.456 25.5783 159.812 27.5331 159.812 29.0742V36.8868H154.112V21.1847H158.288ZM102.262 16.2724C100.335 16.2724 98.7727 17.2921 98.7727 18.5498C98.7727 19.8074 100.335 20.8271 102.262 20.8271C104.189 20.8271 105.751 19.8074 105.751 18.5498C105.751 17.2921 104.19 16.2724 102.262 16.2724ZM149.319 16.2724C147.392 16.2724 145.829 17.2921 145.829 18.5498C145.829 19.8074 147.392 20.8271 149.319 20.8271C151.246 20.8271 152.808 19.8074 152.808 18.5498C152.808 17.2921 151.246 16.2724 149.319 16.2724Z" fill="#100F0D"/>
<path fill-rule="evenodd" clip-rule="evenodd" d="M187.427 33.5067C186.12 33.5067 185.159 31.8495 185.159 29.5401C185.159 27.2972 186.146 25.5746 187.382 25.5746C188.967 25.5746 189.644 27.0288 189.644 29.5401C189.644 32.1528 189.02 33.5067 187.427 33.5067ZM188.991 20.8175C186.062 20.8175 184.719 23.0138 184.135 24.265C183.75 25.0916 183.77 25.3348 183.488 25.3348C183.081 25.3348 183.419 24.671 183.602 23.8905C183.964 22.3534 183.689 21.1792 183.689 21.1792H179.515V41.2125H185.213V34.8612C185.886 36.0051 187.135 37.2272 189.061 37.2272C193.182 37.2272 195.256 33.7406 195.256 29.0302C195.256 23.6916 192.774 20.8175 188.992 20.8175" fill="#100F0D"/>
<path fill-rule="evenodd" clip-rule="evenodd" d="M37.2147 25.5578C37.598 25.5123 37.9649 25.5099 38.3026 25.5578C38.498 25.1098 38.5313 24.338 38.3557 23.4974C38.095 22.248 37.7415 21.492 37.0111 21.6098C36.2808 21.7276 36.254 22.633 36.5153 23.8819C36.6623 24.5848 36.9236 25.1856 37.2147 25.5578Z" fill="#231F20"/>
<path fill-rule="evenodd" clip-rule="evenodd" d="M30.9491 26.5466C31.4712 26.7758 31.7926 26.9281 31.918 26.7951C31.9991 26.7122 31.9746 26.5542 31.8498 26.3506C31.5919 25.93 31.0617 25.503 30.4988 25.2633C29.3484 24.768 27.9759 24.9325 26.9171 25.6932C26.5677 25.9492 26.2364 26.3039 26.2836 26.5192C26.2988 26.5886 26.3513 26.6411 26.4738 26.6586C26.7619 26.6912 27.7688 26.1826 28.929 26.1114C29.7474 26.0612 30.4264 26.3173 30.9491 26.5466Z" fill="#231F20"/>
<path fill-rule="evenodd" clip-rule="evenodd" d="M29.9005 27.1463C29.2198 27.2536 28.8447 27.4782 28.6038 27.6865C28.3984 27.8661 28.2713 28.065 28.2724 28.2044C28.273 28.2709 28.3016 28.3095 28.3244 28.3287C28.3553 28.3561 28.392 28.3713 28.4364 28.3713C28.5898 28.3713 28.9345 28.233 28.9345 28.233C29.8813 27.8941 30.506 27.9355 31.1249 28.0055C31.4667 28.044 31.6289 28.065 31.7036 27.9478C31.7257 27.914 31.7526 27.841 31.6843 27.7302C31.5251 27.4718 30.8373 27.0349 29.9005 27.1463Z" fill="#231F20"/>
<path fill-rule="evenodd" clip-rule="evenodd" d="M35.1004 29.3468C35.5624 29.5737 36.0711 29.4844 36.2367 29.1479C36.4024 28.8113 36.1621 28.3539 35.7001 28.127C35.2381 27.9001 34.7294 27.9894 34.5637 28.3259C34.3981 28.6631 34.6384 29.1199 35.1004 29.3468Z" fill="#231F20"/>
<path fill-rule="evenodd" clip-rule="evenodd" d="M38.0711 26.7517C37.6961 26.7453 37.3846 27.1571 37.3758 27.6722C37.3671 28.1873 37.6646 28.609 38.0396 28.6154C38.4147 28.6219 38.7262 28.21 38.735 27.6949C38.7437 27.1804 38.4462 26.7581 38.0711 26.7517Z" fill="#231F20"/>
<path fill-rule="evenodd" clip-rule="evenodd" d="M12.8597 36.0322C12.7663 35.9149 12.6129 35.9505 12.4642 35.9855C12.3603 36.01 12.2431 36.0368 12.1142 36.0351C11.8383 36.0298 11.6043 35.912 11.4731 35.7102C11.3022 35.4477 11.3121 35.0563 11.5005 34.6083L11.5886 34.4076C11.8896 33.7321 12.393 32.6022 11.8278 31.5254C11.4019 30.7145 10.7078 30.2099 9.87302 30.1038C9.07152 30.0023 8.24669 30.2992 7.72053 30.8796C6.89045 31.7954 6.76036 33.042 6.92078 33.4824C6.9797 33.6434 7.07186 33.6883 7.13836 33.6977C7.27953 33.7163 7.48836 33.6137 7.61902 33.2619L7.65636 33.1476C7.71469 32.9615 7.82319 32.615 8.00111 32.3374C8.21577 32.0025 8.54944 31.7721 8.94144 31.6875C9.34044 31.6018 9.74877 31.6782 10.0906 31.9022C10.6722 32.2825 10.8962 32.9953 10.6477 33.6749C10.5193 34.0267 10.3105 34.6993 10.3566 35.2517C10.4499 36.3699 11.1377 36.8191 11.7554 36.8669C12.3562 36.8897 12.7763 36.5519 12.8824 36.3057C12.9448 36.1599 12.8923 36.0712 12.8579 36.0333" fill="#231F20"/>
<path fill-rule="evenodd" clip-rule="evenodd" d="M18.5743 15.4933C20.5343 13.2288 22.9464 11.2601 25.1076 10.1546C25.1823 10.1161 25.2616 10.1972 25.2214 10.2707C25.0499 10.5816 24.7191 11.2472 24.6147 11.7518C24.5984 11.8305 24.6841 11.8895 24.7506 11.8446C26.0952 10.9281 28.4338 9.94581 30.4853 9.81981C30.5734 9.81456 30.616 9.92715 30.546 9.9814C30.2339 10.2206 29.8927 10.5519 29.6436 10.8867C29.601 10.9439 29.6413 11.0256 29.7124 11.0261C31.1527 11.0366 33.1832 11.5406 34.5068 12.2832C34.5961 12.3334 34.5325 12.5066 34.4322 12.4839C32.4296 12.0248 29.1519 11.6766 25.7464 12.5072C22.7066 13.2486 20.3861 14.3937 18.6939 15.6245C18.6082 15.6869 18.5049 15.5732 18.5743 15.4933ZM28.3346 37.4335L28.3352 37.4347L28.3364 37.437L28.3346 37.4335ZM36.4161 38.3872C36.4744 38.3627 36.5141 38.2968 36.5077 38.2309C36.4995 38.1498 36.4271 38.0909 36.3461 38.0991C36.3461 38.0991 32.1642 38.718 28.2133 37.2719C28.6438 35.8731 29.7877 36.3783 31.5173 36.5177C34.6346 36.7038 37.4287 36.2482 39.4937 35.6555C41.2828 35.1422 43.633 34.1295 45.4583 32.6887C46.0737 34.0409 46.2913 35.5295 46.2913 35.5295C46.2913 35.5295 46.7678 35.4443 47.1663 35.6893C47.5425 35.9209 47.8184 36.4022 47.63 37.647C47.2462 39.9722 46.258 41.8598 44.5967 43.5964C43.5852 44.6849 42.3579 45.631 40.9532 46.3194C40.2071 46.7114 39.4132 47.0503 38.5738 47.3239C32.3112 49.3696 25.9004 47.1209 23.8342 42.2921C23.6691 41.9292 23.5297 41.5489 23.4201 41.1516C22.5398 37.9696 23.2871 34.1517 25.6239 31.7484C25.768 31.5955 25.915 31.4141 25.915 31.1872C25.915 30.9976 25.7942 30.7975 25.6898 30.6552C24.872 29.4693 22.0399 27.4486 22.6086 23.538C23.017 20.7287 25.474 18.75 27.7647 18.8673L28.3451 18.9005C29.3379 18.9594 30.2036 19.0866 31.0208 19.121C32.3888 19.1805 33.6184 18.9816 35.0756 17.7677C35.5667 17.3582 35.9611 17.0029 36.6278 16.8904C36.6978 16.8781 36.8722 16.8157 37.2205 16.832C37.5763 16.8513 37.9146 16.9487 38.2186 17.1511C39.3864 17.9281 39.5521 19.8105 39.6127 21.1872C39.6471 21.9729 39.7422 23.8746 39.7749 24.4206C39.849 25.6689 40.1774 25.8445 40.8412 26.0632C41.2145 26.1863 41.561 26.2779 42.072 26.4214C43.6179 26.8554 44.5343 27.2958 45.1124 27.8616C45.4571 28.2151 45.6175 28.5908 45.6671 28.949C45.8491 30.279 44.6346 31.9216 41.4187 33.4144C37.9036 35.0459 33.6388 35.4589 30.6924 35.1305L29.6599 35.0138C27.3033 34.6965 25.9587 37.7421 27.3733 39.8292C28.285 41.1744 30.7683 42.0494 33.2527 42.05C38.9489 42.0506 43.3274 39.6181 44.956 37.5175L45.0861 37.332C45.1666 37.2113 45.1001 37.1448 45.0004 37.213C43.6698 38.1236 37.7595 41.7385 31.4373 40.6506C31.4373 40.6506 30.6691 40.524 29.9679 40.2516C29.4109 40.0346 28.2442 39.4979 28.1024 38.3015C33.2043 39.8794 36.4161 38.3872 36.4161 38.3872ZM8.39347 26.2627C6.61898 26.6075 5.05507 27.6131 4.099 29.0026C3.52733 28.5261 2.46275 27.6032 2.27434 27.2433C0.747761 24.3442 3.94033 18.708 6.17098 15.5248C11.6835 7.65857 20.3167 1.70452 24.3131 2.78485C24.963 2.9686 27.1149 5.4635 27.1149 5.4635C27.1149 5.4635 23.1196 7.68015 19.4149 10.7701C14.4228 14.6136 10.6527 20.2002 8.39347 26.2627ZM11.3749 39.5656C11.1065 39.6117 10.8324 39.6297 10.5559 39.6227C7.88597 39.551 5.00257 37.1477 4.71616 34.2975C4.39941 31.147 6.0094 28.7226 8.85955 28.1475C9.20022 28.0786 9.61204 28.039 10.056 28.0623C11.6531 28.1498 14.0063 29.376 14.5435 32.8549C15.0195 35.9361 14.2635 39.0732 11.3749 39.5656ZM47.539 33.9866C47.5163 33.9055 47.3669 33.3613 47.1622 32.705C46.9574 32.0482 46.7457 31.5868 46.7457 31.5868C47.567 30.3577 47.5816 29.2581 47.4719 28.6357C47.3553 27.864 47.0338 27.2066 46.3863 26.5264C45.7388 25.8468 44.4141 25.1503 42.5527 24.6277L41.5762 24.3564C41.5715 24.3161 41.5249 22.054 41.4829 21.0828C41.452 20.3804 41.3919 19.2843 41.0518 18.2052C40.6464 16.7439 39.9405 15.4653 39.0591 14.6475C41.4916 12.1263 43.01 9.34848 43.0059 6.96616C42.9989 2.3841 37.3716 0.997529 30.4363 3.86926L28.9669 4.49284C28.9605 4.48643 26.3105 1.88652 26.2708 1.85153C18.3638 -5.04519 -6.35778 22.4337 1.54576 29.1076L3.273 30.5712C2.825 31.732 2.64883 33.062 2.79292 34.4918C2.97725 36.3287 3.92458 38.0892 5.46049 39.4495C6.91823 40.741 8.83505 41.5588 10.6947 41.5571C13.7706 48.6451 20.7986 52.9933 29.0387 53.2383C37.8779 53.5007 45.2979 49.3533 48.407 41.903C48.6106 41.3803 49.4733 39.0242 49.4733 36.9441C49.4733 34.854 48.2915 33.9866 47.539 33.9866Z" fill="#231F20"/>
</svg>
