<svg width="173" height="28" viewBox="0 0 173 28" fill="none" xmlns="http://www.w3.org/2000/svg">
<path d="M13.0109 1.1622C20.1334 1.1622 25.9348 6.96362 25.9348 14.1436C25.9348 21.3236 20.1334 27.125 13.0109 27.125C5.88834 27.125 0.0869141 21.381 0.0869141 14.1436C0.0869141 6.90618 5.88834 1.1622 13.0109 1.1622ZM114.335 0.875V23.6212C114.335 25.3444 115.024 25.8039 116.345 26.1485L116.403 26.4357H109.108V23.6212C108.246 25.689 106.465 26.9527 104.168 26.9527C100.262 26.9527 97.6772 23.3914 97.6772 18.1069C97.6772 15.1201 98.5388 12.5927 100.147 10.6972C101.698 8.85914 103.823 7.88266 106.178 7.88266C107.327 7.88266 108.304 8.11242 109.108 8.62938V5.52763C109.108 4.83835 108.935 4.37883 108.591 4.03419C108.131 3.63211 107.385 3.45979 106.236 3.57467H106.178V3.28747L114.335 0.875ZM142.021 7.9401V23.6212C142.021 25.3444 142.71 25.8039 144.031 26.1485V26.4357H136.736V23.5637C135.875 25.6316 133.979 26.9527 131.854 26.9527C129.327 26.9527 127.718 25.8039 127.086 23.5637L126.971 22.9893C126.857 22.4149 126.799 21.8405 126.799 21.2661V12.8799C126.799 11.0418 126.397 10.4675 124.789 10.3526H124.731V10.0654L132.026 7.9401V21.1513C132.026 23.1042 132.888 24.1956 134.496 24.1956C135.473 24.1956 136.277 23.6786 136.736 22.817V12.8799C136.736 10.9844 136.392 10.41 135.071 10.2951H135.013V10.0079L142.021 7.9401ZM89.3484 7.88266C91.3014 7.88266 93.1969 8.57194 94.4606 9.77817C95.8966 11.1567 96.6433 13.1671 96.7007 15.8094V15.8668H85.7297C85.4999 19.6578 87.855 22.7596 90.9567 22.8745C93.1969 23.0468 95.1498 21.6682 96.2412 19.4281L96.5284 19.5429C95.8966 23.736 93.4266 26.8952 89.1186 26.8952C84.2363 26.8952 81.4792 22.817 81.3643 17.7049V16.3838C81.594 14.1436 82.2833 12.1332 83.4895 10.6398C84.2363 9.72073 85.0979 9.03146 86.1318 8.57194C86.9934 8.11242 88.257 7.88266 89.291 7.88266H89.3484ZM165.341 7.9401C168.443 7.9401 170.339 9.89305 170.339 13.2246V23.9084C170.339 25.172 170.913 25.8039 172.349 26.1485H172.406V26.4357H165.054V13.3969C165.054 11.329 164.307 10.2951 162.757 10.2951C161.493 10.2951 160.861 11.2142 160.516 12.0183C160.574 12.4204 160.631 12.8225 160.631 13.2246V24.0807C160.631 25.4018 161.033 25.8613 162.182 26.1485H162.24V26.4357H155.404V13.3969C155.404 11.329 154.6 10.2951 153.107 10.2951C151.9 10.2951 151.269 11.1567 150.981 11.846V24.1381C150.981 25.4592 151.383 25.9188 152.532 26.206H152.59V26.4932H145.754V12.8225C145.754 10.9844 145.295 10.41 143.744 10.2951H143.686V10.0079L150.981 7.99754V11.0418C151.728 9.08889 153.451 7.9401 155.634 7.9401C158.104 7.9401 159.827 9.14633 160.401 11.329C161.148 9.26121 163.044 7.9401 165.341 7.9401ZM60.5711 2.0238L67.4064 18.0495L74.2417 2.0238H81.594L81.5366 2.311L81.4531 2.32957C80.1865 2.61827 79.5262 3.09193 79.5262 4.66603V24.1956C79.6411 25.4592 80.3304 25.8613 81.5366 26.1485H81.594V26.4357H72.2313V26.1485H72.2888C73.495 25.8613 74.1843 25.4592 74.2992 24.1956V5.18299L65.2811 26.3783H64.7642L55.9759 5.75739V23.736C55.9759 25.3444 56.6651 25.8039 57.9863 26.0911H58.0437V26.3783H52.6444V26.0911H52.7018C54.0229 25.8039 54.7122 25.3444 54.7122 23.736V4.66603C54.7122 3.05771 54.0229 2.59819 52.7018 2.311H52.6444V2.0238H60.5711ZM123.238 7.9401V23.6212L123.239 23.7272C123.267 25.3635 123.955 25.8111 125.248 26.1485L125.306 26.4357H118.011V12.8799C118.011 11.0418 117.609 10.4675 116 10.3526H115.943V10.0654L123.238 7.9401ZM33.6892 1.90892C37.193 1.90892 40.1225 7.42314 40.1225 14.1436C40.1225 20.9215 37.2505 26.3783 33.6892 26.3783C30.1279 26.3783 27.256 20.9215 27.256 14.1436C27.256 7.3657 30.1279 1.90892 33.6892 1.90892ZM43.5689 3.17259C44.89 3.17259 45.8665 8.11242 45.8665 14.1436C45.8665 20.1748 44.8325 25.1146 43.5689 25.1146C42.3178 25.1146 41.292 20.2731 41.2716 14.3242L41.2713 14.1436C41.2713 8.11242 42.3052 3.17259 43.5689 3.17259ZM107.04 8.91658C104.742 8.91658 103.306 11.9609 103.306 16.671C103.306 18.9111 103.708 20.8641 104.398 22.1852C105.029 23.4489 105.949 24.1381 106.982 24.1381C108.016 24.1381 108.763 23.6786 109.108 22.817V10.1803C108.706 9.37609 107.959 8.91658 107.04 8.91658ZM89.291 8.97401C87.2231 8.97401 86.0169 11.4439 85.8446 14.8903V14.9478H92.1055C92.2204 12.2481 91.7609 10.4675 90.8993 9.60585C90.4398 9.20377 89.9228 8.97401 89.291 8.97401ZM120.423 1.04732C122.089 1.04732 123.353 2.311 123.353 3.97675C123.353 5.6425 122.089 6.90618 120.423 6.90618C118.758 6.90618 117.494 5.6425 117.494 3.97675C117.494 2.311 118.758 1.04732 120.423 1.04732Z" fill="black"/>
</svg>
