<svg width="165" height="36" viewBox="0 0 165 36" fill="none" xmlns="http://www.w3.org/2000/svg">
<path d="M68.6564 7.49998V28.4999H65.0106V12.0208H64.962L58.4481 28.4999H56.0176L49.3578 12.0208H49.3092V28.4999H45.9552V7.49998H51.2051L57.2328 23.0555H57.3301L63.6981 7.49998H68.6564ZM71.6703 9.10415C71.6703 8.52082 71.8648 8.0347 72.3023 7.64582C72.7398 7.25693 73.2259 7.06248 73.8092 7.06248C74.4412 7.06248 74.9759 7.25693 75.3648 7.64582C75.7537 8.0347 75.9967 8.52082 75.9967 9.10415C75.9967 9.68748 75.8023 10.1736 75.3648 10.5625C74.9273 10.9514 74.4412 11.1458 73.8092 11.1458C73.1773 11.1458 72.6912 10.9514 72.3023 10.5625C71.9134 10.125 71.6703 9.63887 71.6703 9.10415ZM75.6078 13.4305V28.4999H72.0592V13.4305H75.6078ZM86.3509 25.9235C86.8856 25.9235 87.4689 25.8264 88.1009 25.5347C88.7328 25.2917 89.3162 24.9514 89.8509 24.5625V27.868C89.2676 28.2083 88.6356 28.4513 87.9064 28.5972C87.1773 28.743 86.3995 28.8402 85.5245 28.8402C83.2884 28.8402 81.4898 28.1597 80.1287 26.75C78.7189 25.3403 78.0384 23.5417 78.0384 21.4028C78.0384 18.9722 78.7676 16.9792 80.1773 15.4236C81.587 13.868 83.5801 13.0903 86.2051 13.0903C86.8856 13.0903 87.5662 13.1875 88.1981 13.3333C88.8787 13.4792 89.4134 13.7222 89.8023 13.9167V17.3194C89.2676 16.9305 88.6842 16.5903 88.1495 16.3958C87.5662 16.2014 86.9828 16.0555 86.3995 16.0555C84.9898 16.0555 83.8717 16.493 82.9967 17.4166C82.1217 18.3402 81.7328 19.5555 81.7328 21.1111C81.7328 22.618 82.1703 23.8333 82.9967 24.6597C83.8231 25.4861 84.9412 25.9235 86.3509 25.9235ZM99.9134 13.1875C100.205 13.1875 100.448 13.1875 100.691 13.2361C100.934 13.2847 101.129 13.3333 101.275 13.3819V16.9792C101.08 16.8333 100.837 16.6874 100.448 16.5902C100.059 16.493 99.6703 16.3958 99.1356 16.3958C98.2606 16.3958 97.5314 16.7847 96.9481 17.5139C96.3648 18.243 96.0245 19.3611 96.0245 20.9167V28.4999H92.4759V13.4305H96.0245V15.8125H96.0731C96.4134 14.9861 96.8995 14.3541 97.5314 13.868C98.212 13.4305 98.9898 13.1875 99.9134 13.1875ZM101.469 21.2083C101.469 18.7291 102.198 16.7361 103.559 15.2778C104.969 13.8194 106.913 13.0903 109.393 13.0903C111.726 13.0903 113.573 13.7708 114.886 15.1805C116.198 16.5903 116.879 18.4861 116.879 20.868C116.879 23.2986 116.149 25.243 114.788 26.7014C113.379 28.1597 111.483 28.8889 109.052 28.8889C106.719 28.8889 104.872 28.2083 103.511 26.8472C102.15 25.4375 101.469 23.5416 101.469 21.2083ZM105.163 21.0624C105.163 22.618 105.504 23.8333 106.233 24.6597C106.962 25.4861 107.983 25.9235 109.295 25.9235C110.559 25.9235 111.58 25.5347 112.261 24.6597C112.941 23.8333 113.281 22.618 113.281 20.9652C113.281 19.361 112.941 18.1458 112.261 17.2708C111.58 16.4444 110.559 16.0069 109.344 16.0069C108.031 16.0069 107.059 16.4444 106.33 17.3194C105.504 18.243 105.163 19.4583 105.163 21.0624ZM122.177 17.4166C122.177 17.9027 122.323 18.3402 122.663 18.6319C123.004 18.9235 123.684 19.2639 124.802 19.7014C126.212 20.2847 127.233 20.9167 127.768 21.5972C128.351 22.3264 128.643 23.1528 128.643 24.1736C128.643 25.5833 128.108 26.7014 126.99 27.5764C125.92 28.4514 124.413 28.8402 122.566 28.8402C121.934 28.8402 121.254 28.743 120.476 28.5972C119.698 28.4513 119.066 28.2569 118.531 28.0138V24.5139C119.163 24.9514 119.893 25.3402 120.622 25.5833C121.351 25.8263 122.031 25.9722 122.663 25.9722C123.441 25.9722 124.073 25.875 124.413 25.6319C124.802 25.3889 124.997 25.0486 124.997 24.5139C124.997 24.0278 124.802 23.6388 124.413 23.2499C124.025 22.9097 123.247 22.5208 122.177 22.0833C120.865 21.5486 119.941 20.9166 119.406 20.236C118.872 19.5555 118.58 18.6805 118.58 17.6111C118.58 16.25 119.115 15.1319 120.184 14.2569C121.254 13.3819 122.663 12.9444 124.365 12.9444C124.9 12.9444 125.483 12.993 126.115 13.1389C126.747 13.2847 127.33 13.4305 127.768 13.5764V17.0278C127.281 16.7361 126.747 16.4444 126.115 16.2013C125.483 15.9583 124.851 15.8611 124.268 15.8611C123.587 15.8611 123.052 16.0069 122.712 16.25C122.372 16.5903 122.177 16.9305 122.177 17.4166ZM130.15 21.2083C130.15 18.7291 130.879 16.7361 132.24 15.2778C133.65 13.8194 135.594 13.0903 138.073 13.0903C140.406 13.0903 142.254 13.7708 143.566 15.1805C144.879 16.5903 145.559 18.4861 145.559 20.868C145.559 23.2986 144.83 25.243 143.469 26.7014C142.059 28.1597 140.163 28.8889 137.733 28.8889C135.4 28.8889 133.552 28.2083 132.191 26.8472C130.879 25.4375 130.15 23.5416 130.15 21.2083ZM133.844 21.0624C133.844 22.618 134.184 23.8333 134.913 24.6597C135.643 25.4861 136.663 25.9235 137.976 25.9235C139.24 25.9235 140.261 25.5347 140.941 24.6597C141.622 23.8333 141.962 22.618 141.962 20.9652C141.962 19.361 141.622 18.1458 140.941 17.2708C140.261 16.4444 139.24 16.0069 138.025 16.0069C136.712 16.0069 135.74 16.4444 135.011 17.3194C134.233 18.243 133.844 19.4583 133.844 21.0624ZM157.372 16.3472H152.073V28.4999H148.476V16.3472H145.948V13.4305H148.476V11.3403C148.476 9.78471 149.011 8.47221 150.031 7.45137C151.052 6.43054 152.365 5.94443 153.969 5.94443C154.406 5.94443 154.795 5.99304 155.136 5.99304C155.476 5.99304 155.768 6.09026 156.011 6.18748V9.24998C155.913 9.20137 155.67 9.10415 155.379 9.00693C155.087 8.90971 154.747 8.86109 154.358 8.86109C153.629 8.86109 153.045 9.10415 152.656 9.54165C152.268 9.97915 152.073 10.7083 152.073 11.5833V13.3819H157.372V9.97915L160.92 8.90971V13.3819H164.518V16.2986H160.92V23.3472C160.92 24.2708 161.115 24.9028 161.406 25.2917C161.747 25.6805 162.281 25.875 163.011 25.875C163.205 25.875 163.448 25.8264 163.74 25.7292C164.031 25.6319 164.275 25.5347 164.469 25.3889V28.3055C164.226 28.4514 163.886 28.5486 163.351 28.6458C162.816 28.743 162.33 28.7917 161.795 28.7917C160.288 28.7917 159.17 28.4027 158.441 27.6249C157.712 26.8472 157.323 25.6319 157.323 24.0278L157.372 16.3472Z" fill="#737373"/>
<path d="M17.0315 0.5H0.406494V17.125H17.0315V0.5Z" fill="#F25022"/>
<path d="M35.4064 0.5H18.7814V17.125H35.4064V0.5Z" fill="#7FBA00"/>
<path d="M17.0315 18.875H0.406494V35.5H17.0315V18.875Z" fill="#00A4EF"/>
<path d="M35.4064 18.875H18.7814V35.5H35.4064V18.875Z" fill="#FFB900"/>
</svg>
