<svg width="130" height="36" viewBox="0 0 130 36" fill="none" xmlns="http://www.w3.org/2000/svg">
<path d="M18.3076 33.244C16.3594 33.5861 14.377 33.6887 12.3262 33.9618L6.0712 15.6417V34.7481C4.12303 34.9531 2.34573 35.2266 0.5 35.5V0.5H5.69545L12.8047 20.3587V0.5H18.3076V33.244ZM29.0742 13.3174C31.1935 13.3174 34.4406 13.2148 36.3887 13.2148V18.6835C33.9619 18.6835 31.1251 18.6835 29.0742 18.786V26.9209C32.2872 26.7159 35.5001 26.4422 38.747 26.3397V31.603L23.6053 32.7996V0.5H38.747V5.96876H29.0742V13.3174ZM59.0839 5.96888H53.4101V31.1251C51.5644 31.1251 49.7187 31.1251 47.9416 31.1933V5.96888H42.2679V0.5H59.0842L59.0839 5.96888ZM67.9706 12.9415H75.456V18.4101H67.9706V30.8175H62.604V0.5H77.8828V5.96876H67.9706V12.9415ZM86.7694 26.0322C89.8799 26.1004 93.0242 26.34 96.0664 26.5107V31.9111C91.1787 31.6033 86.291 31.2961 81.3008 31.1933V0.5H86.7694V26.0322ZM100.681 32.2871C102.424 32.3898 104.269 32.4924 106.047 32.6971V0.5H100.681V32.2871ZM130.007 0.5L123.068 17.1456L130.007 35.5C127.956 35.2266 125.905 34.8506 123.854 34.5087L119.924 24.3917L115.925 33.6887C113.942 33.3466 112.028 33.244 110.046 32.9706L117.087 16.9403L110.73 0.5H116.608L120.197 9.69436L124.025 0.5H130.007V0.5Z" fill="#D81F26"/>
</svg>
