<svg width="142" height="36" viewBox="0 0 142 36" fill="none" xmlns="http://www.w3.org/2000/svg">
<path d="M44.5016 28.1768L46.2144 24.1734C48.0898 25.5623 50.5359 26.2974 52.9826 26.2974C54.7766 26.2974 55.9182 25.6032 55.9182 24.5413C55.8772 21.5999 45.1132 23.8875 45.0314 16.4924C44.9904 12.7341 48.3342 9.83366 53.0644 9.83366C55.8772 9.83366 58.6911 10.5284 60.6887 12.1219L59.0882 16.2106C57.2502 15.0288 54.9801 14.2048 52.8195 14.2048C51.3516 14.2048 50.3727 14.8989 50.3727 15.7983C50.4137 18.6988 61.26 17.1053 61.3822 24.1734C61.3822 28.0137 58.1198 30.71 53.4714 30.71C50.0469 30.71 46.908 29.8932 44.5016 28.1768ZM112.703 22.7238C112.27 23.492 111.641 24.1313 110.88 24.5763C110.119 25.0212 109.254 25.2558 108.372 25.2559C105.625 25.2559 103.398 23.0244 103.398 20.2718C103.398 17.5193 105.625 15.2878 108.372 15.2878C109.254 15.2878 110.119 15.5225 110.88 15.9674C111.641 16.4123 112.27 17.0517 112.703 17.82L117.464 15.1767C115.681 11.9891 112.279 9.83366 108.372 9.83366C102.619 9.83366 97.9546 14.5065 97.9546 20.2718C97.9546 26.0365 102.619 30.71 108.372 30.71C112.279 30.71 115.681 28.5546 117.464 25.367L112.703 22.7238ZM64.4722 30.3013H70.4251V1.14451H64.4728L64.4722 30.3013ZM120.471 1.14451V30.3013H126.424V21.5659L133.478 30.3013H141.087L132.116 19.9239L140.434 10.2407H133.151L126.424 18.2912V1.14451H120.471ZM88.7655 10.2418V12.6119C87.7871 10.9775 85.3813 9.83366 82.8534 9.83366C77.6343 9.83366 73.5163 14.4504 73.5163 20.2514C73.5163 26.0524 77.6343 30.71 82.8534 30.71C85.3813 30.71 87.7871 29.5662 88.7655 27.9319V30.3013H94.7184V10.2418H88.7655ZM88.7655 22.7642C87.9094 24.1939 86.1152 25.2553 84.1177 25.2553C81.3698 25.2553 79.143 23.0244 79.143 20.2718C79.143 17.5193 81.3698 15.2878 84.1177 15.2878C86.1152 15.2878 87.9094 16.3907 88.7655 17.8608V22.7642Z" fill="black"/>
<path d="M13.0636 0.5C11.1344 0.5 9.57071 2.06719 9.57071 3.99987C9.57026 4.45901 9.66024 4.91376 9.83551 5.33814C10.0108 5.76252 10.2679 6.1482 10.5923 6.4732C10.9166 6.7982 11.3018 7.05612 11.7258 7.23226C12.1499 7.40839 12.6044 7.49928 13.0636 7.49974H16.557V3.99987C16.5578 3.07252 16.1901 2.18285 15.535 1.52651C14.8799 0.870169 13.9909 0.50093 13.0636 0.5ZM13.0636 9.83299H3.74871C1.81955 9.83299 0.255859 11.4002 0.255859 13.3334C0.255859 15.2661 1.81955 16.8333 3.74871 16.8333H13.0642C14.9927 16.8333 16.557 15.2661 16.557 13.3334C16.557 11.4002 14.9927 9.83299 13.0636 9.83299Z" fill="#2FBDEE"/>
<path d="M35.1867 13.3334C35.1867 11.4002 33.6224 9.83299 31.6932 9.83299C29.764 9.83299 28.2005 11.4002 28.2005 13.3334V16.8333H31.6932C32.6206 16.8323 33.5096 16.4631 34.1647 15.8068C34.8199 15.1504 35.1874 14.2608 35.1867 13.3334ZM25.8718 13.3334V3.99987C25.8725 3.07252 25.505 2.18285 24.8498 1.52651C24.1947 0.870169 23.3058 0.50093 22.3784 0.5C20.4492 0.5 18.8856 2.06719 18.8856 3.99987V13.3329C18.8856 15.2667 20.4492 16.8339 22.3784 16.8339C23.3058 16.8329 24.1947 16.4637 24.8498 15.8074C25.505 15.151 25.8725 14.2608 25.8718 13.3334Z" fill="#29AD72"/>
<path d="M22.3784 35.5C23.3058 35.4992 24.1947 35.1299 24.8498 34.4735C25.505 33.8173 25.8725 32.9275 25.8718 32.0002C25.8725 31.0728 25.505 30.1832 24.8498 29.5268C24.1947 28.8705 23.3058 28.5012 22.3784 28.5003H18.8856V32.0002C18.8856 33.9329 20.4492 35.5 22.3784 35.5ZM22.3784 26.167H31.6938C33.6224 26.167 35.1867 24.5999 35.1867 22.6667C35.1874 21.7393 34.8199 20.8496 34.1647 20.1932C33.5096 19.537 32.6206 19.1677 31.6932 19.1667H22.3784C20.4492 19.1667 18.8856 20.734 18.8856 22.6667C18.885 23.1257 18.9751 23.5805 19.1504 24.0049C19.3256 24.4293 19.5828 24.8149 19.9072 25.14C20.2315 25.4649 20.6166 25.7228 21.0407 25.899C21.4647 26.0751 21.9193 26.1666 22.3784 26.167Z" fill="#E9A929"/>
<path d="M0.255861 22.6667C0.2554 23.1257 0.34538 23.5805 0.520662 24.0049C0.695945 24.4293 0.953098 24.8149 1.27744 25.14C1.60178 25.4649 1.98695 25.7228 2.41098 25.899C2.83501 26.0751 3.28957 26.166 3.74871 26.1665C4.67606 26.1655 5.56506 25.7962 6.2202 25.14C6.87532 24.4836 7.24292 23.5939 7.24215 22.6667V19.1667H3.74871C1.81955 19.1667 0.255861 20.734 0.255861 22.6667ZM9.57071 22.6667V31.9996C9.57071 33.9329 11.1344 35.5 13.0636 35.5C13.9909 35.4992 14.8799 35.1299 15.535 34.4735C16.1901 33.8173 16.5578 32.9275 16.557 32.0002V22.6667C16.5574 22.2075 16.4675 21.7526 16.2922 21.3282C16.1169 20.9038 15.8596 20.5181 15.5353 20.1931C15.2108 19.868 14.8256 19.6102 14.4014 19.4341C13.9774 19.2579 13.5228 19.1671 13.0636 19.1667C11.1344 19.1667 9.57071 20.734 9.57071 22.6667Z" fill="#DC1C50"/>
</svg>
